<?xml version="1.0" encoding="UTF-8"?>
<svg width="35px" height="38px" viewBox="0 0 35 38" version="1.1" xmlns="http://www.w3.org/2000/svg" xmlns:xlink="http://www.w3.org/1999/xlink">
    <!-- Generator: Sketch 55.2 (78181) - https://sketchapp.com -->
    <title>Group 8</title>
    <desc>Created with Sketch.</desc>
    <g id="Symbols" stroke="none" stroke-width="1" fill="none" fill-rule="evenodd">
        <g id="asidebar-一级菜单-900" transform="translate(-103.000000, -33.000000)">
            <g id="asidebar-一级菜单" transform="translate(0.000000, -3.000000)">
                <g id="一级菜单">
                    <g id="Group-29" transform="translate(85.000000, 36.000000)">
                        <g id="Group-8" transform="translate(18.000000, 0.000000)">
                            <path d="M15.8596997,0.460738401 L2.12328122,8.20994609 C1.06080055,8.8094202 0.406175357,9.91710772 0.406175357,11.116056 L0.406175357,26.6153086 C0.406175357,27.8138382 1.06080055,28.9215257 2.12328122,29.5209998 L15.8596997,37.0006116 C16.9221804,37.6000857 18.2314307,37.6000857 19.2939114,37.0006116 L33.0303299,29.5209998 C34.0928106,28.9215257 34.7474358,27.8138382 34.7474358,26.6153086 L34.7474358,11.116056 C34.7474358,9.91710772 34.0928106,8.8094202 33.0303299,8.20994609 L19.2939114,0.460738401 C18.2314307,-0.138735717 16.9221804,-0.138735717 15.8596997,0.460738401" id="Fill-8" fill="#031E3F"></path>
                            <path d="M16.660673,17.4486293 L6.22479935,12.0089877 C5.04107592,11.3919313 5.0187981,9.74170293 6.18538475,9.09408669 L16.6054069,3.31242674 C17.1246515,3.02441124 17.7604262,3.02315536 18.2809561,3.30907772 L29.0278624,9.21465131 C30.2141563,9.86645383 30.1773122,11.5476606 28.963171,12.1488092 L18.2321162,17.4649557 C17.7368631,17.7102713 17.1507851,17.7039918 16.660673,17.4486293" id="Fill-9" fill="#F4756E"></path>
                            <path d="M13.670304,33.0474314 L3.74639181,27.4604331 C3.21729358,27.1623706 2.89083782,26.6110386 2.89083782,26.0136576 L2.89083782,15.9264171 C2.89083782,14.6705356 4.25535433,13.8642596 5.39366528,14.4474073 L15.3171491,19.532053 C15.8800925,19.8204871 16.2322534,20.3902387 16.2322534,21.0110628 L16.2322534,31.6002373 C16.2322534,32.8850041 14.8099002,33.6887683 13.670304,33.0474314" id="Fill-10" fill="#EFCC3C"></path>
                            <path d="M31.6497048,27.3362683 L21.1864123,32.9479656 C20.0481013,33.558324 18.6565944,32.7545599 18.6548807,31.4861195 L18.6385993,20.7742873 C18.6377439,20.1329505 19.0126111,19.5477097 19.6038302,19.2684853 L30.0675511,14.3224052 C31.2015779,13.7865624 32.5189682,14.5928384 32.5211103,15.8236023 L32.536535,25.8698173 C32.5373903,26.4801757 32.1972251,27.0428107 31.6497048,27.3362683" id="Fill-11" fill="#29D3EF"></path>
                            <path d="M18.56804,12.9563829 C18.56804,12.9563829 19.135696,12.566641 19.506279,13.2301651 C19.9389828,14.0054626 18.9758955,14.9938414 18.5127739,15.3505117 C18.3803922,15.4522381 18.4073827,15.5162881 18.2604348,15.4103754 C18.1139152,15.3048814 17.8183057,13.4235708 18.56804,12.9563829" id="Fill-12" fill="#031E3F"></path>
                            <path d="M16.3638211,12.9563829 C16.3638211,12.9563829 15.7961651,12.566641 15.4255821,13.2301651 C14.9928783,14.0054626 15.9555372,14.9938414 16.4190872,15.3505117 C16.5514689,15.4522381 16.5244784,15.5162881 16.6714264,15.4103754 C16.8179459,15.3048814 17.1135554,13.4235708 16.3638211,12.9563829" id="Fill-13" fill="#031E3F"></path>
                            <path d="M12.0685287,21.7070724 C12.0685287,21.7070724 11.4203298,21.4651059 11.776775,20.7936279 C12.1927704,20.0095392 13.5697111,20.237691 14.1309408,20.413933 C14.2915982,20.4641683 14.3310128,20.4068164 14.3233012,20.5843143 C14.3151613,20.7626495 12.8842397,22.0536957 12.0685287,21.7070724" id="Fill-14" fill="#031E3F"></path>
                            <path d="M13.3006636,23.4929778 C13.3006636,23.4929778 13.2869542,24.1707352 14.0576811,24.0999872 C14.9573623,24.0175176 15.2576844,22.6850273 15.3013832,22.1102522 C15.3138074,21.9457317 15.3832114,21.931917 15.2114151,21.8720533 C15.0396188,21.8126083 13.2779573,22.6243264 13.3006636,23.4929778" id="Fill-15" fill="#031E3F"></path>
                            <path d="M22.1294924,23.1593738 C22.1294924,23.1593738 22.246451,23.8275028 21.4740104,23.8702027 C20.5713302,23.9200194 20.0705077,22.6461369 19.9398397,22.0843392 C19.9021388,21.9235863 19.8314495,21.9202373 19.9921069,21.8356746 C20.1527642,21.7519492 22.0189601,22.2970018 22.1294924,23.1593738" id="Fill-16" fill="#031E3F"></path>
                            <path d="M23.0744147,21.2136365 C23.0744147,21.2136365 23.678058,20.879572 23.2235048,20.2679577 C22.691836,19.5533611 21.3654488,19.9799422 20.8372074,20.2361421 C20.6859753,20.3094018 20.6384207,20.2583293 20.6735511,20.4328968 C20.7086815,20.607883 22.3208246,21.6753823 23.0744147,21.2136365" id="Fill-17" fill="#031E3F"></path>
                        </g>
                    </g>
                </g>
            </g>
        </g>
    </g>
</svg>