<?xml version="1.0" encoding="utf-8"?>
<svg version="1.1" xmlns:xlink="http://www.w3.org/1999/xlink" width="30px" height="29px" xmlns="http://www.w3.org/2000/svg">
  <g transform="matrix(1 0 0 1 -319 -47 )">
    <path d="M 0.37109375 9.35803814713904  L 7 9.35803814713904  L 7 28.8  L 0.37109375 28.8  L 0.37109375 9.35803814713904  Z M 6.23046875 0.951498637602072  C 6.88151041666669 1.5858310626702  7.21354166666669 2.38692098092633  7.2265625 3.35476839237049  C 7.23958333333331 4.30953678474111  6.91080729166669 5.10735694822893  6.240234375 5.7482288828337  C 5.56966145833331 6.3891008174387  4.6875 6.7095367847412  3.59375 6.7095367847412  L 3.5546875 6.7095367847412  C 2.48697916666669 6.7095367847412  1.62760416666669 6.3891008174387  0.9765625 5.7482288828337  C 0.325520833333314 5.10735694822893  0 4.30953678474111  0 3.35476839237049  C 0 2.38692098092633  0.335286458333314 1.5858310626702  1.005859375 0.951498637602072  C 1.67643229166669 0.317166212533948  2.55208333333331 0  3.6328125 0  C 4.71354166666669 0  5.57942708333331 0.317166212533948  6.23046875 0.951498637602072  Z M 27.96875 11.133514986376  C 29.3229166666667 12.617983651226  30 14.7923705722071  30 17.6566757493188  L 30 28.8  L 23 28.8  L 23 18.4021798365122  C 23.57421875 17.0288828337875  23.310546875 15.9531335149863  22.783203125 15.1749318801089  C 22.255859375 14.3967302452315  21.4322916666667 14.0076294277928  20.3125 14.0076294277928  C 19.4921875 14.0076294277928  18.8053385416667 14.2332425068121  18.251953125 14.6844686648501  C 17.6985677083333 15.1356948228884  17.28515625 15.6948228882834  17.01171875 16.3618528610355  C 16.8684895833333 16.7542234332425  16.796875 17.2839237057221  16.796875 17.950953678474  L 16.796875 28.8  L 10.37109375 28.8  C 10.3971354166667 23.5814713896457  10.41015625 19.350408719346  10.41015625 16.1068119891008  C 10.41015625 12.8632152588555  10.4036458333333 10.9275204359674  10.390625 10.2997275204359  L 10.37109375 9.35803814713904  L 16.796875 9.35803814713904  L 16.796875 12.1831062670299  L 16.7578125 12.1831062670299  C 17.0182291666667 11.7645776566758  17.28515625 11.3983651226158  17.55859375 11.0844686648502  C 17.83203125 10.7705722070843  18.1998697916667 10.4305177111717  18.662109375 10.0643051771117  C 19.1243489583333 9.69809264305172  19.6907552083333 9.41362397820171  20.361328125 9.21089918256121  C 21.0319010416667 9.00817438692093  21.77734375 8.90681198910079  22.59765625 8.90681198910079  C 24.82421875 8.90681198910079  26.6145833333333 9.64904632152593  27.96875 11.133514986376  Z " fill-rule="nonzero" fill="#1177b2" stroke="none" transform="matrix(1 0 0 1 319 47 )" />
  </g>
</svg>