<?xml version="1.0" encoding="utf-8"?>
<svg version="1.1" xmlns:xlink="http://www.w3.org/1999/xlink" width="30px" height="30px" xmlns="http://www.w3.org/2000/svg">
  <g transform="matrix(1 0 0 1 -373 -47 )">
    <path d="M 15 27.8125  C 16.71875 27.8125  18.3854166666666 27.4739583333333  20 26.796875  C 19.453125 23.6588541666667  18.5416666666666 20.4166666666667  17.265625 17.0703125  L 17.2265625 17.0703125  L 17.1875 17.08984375  C 16.9791666666666 17.16796875  16.69921875 17.275390625  16.34765625 17.412109375  C 15.99609375 17.548828125  15.3385416666666 17.8678385416667  14.375 18.369140625  C 13.4114583333334 18.8704427083333  12.51953125 19.404296875  11.69921875 19.970703125  C 10.87890625 20.537109375  10.0260416666666 21.2825520833333  9.140625 22.20703125  C 8.25520833333337 23.1315104166667  7.58463541666663 24.0950520833333  7.12890625 25.09765625  L 6.8359375 24.8828125  C 9.23177083333337 26.8359375  11.953125 27.8125  15 27.8125  Z M 16.1328125 15.029296875  C 16.25 14.9967447916667  16.3346354166666 14.9674479166667  16.38671875 14.94140625  C 16.11328125 14.3033854166667  15.7682291666666 13.5807291666667  15.3515625 12.7734375  C 11.3020833333334 13.984375  6.92057291666663 14.58984375  2.20703125 14.58984375  C 2.19401041666663 14.6809895833333  2.1875 14.8177083333333  2.1875 15  C 2.1875 16.6145833333333  2.47395833333337 18.154296875  3.046875 19.619140625  C 3.61979166666663 21.083984375  4.42708333333337 22.3958333333333  5.46875 23.5546875  C 6.11979166666663 22.3958333333333  6.923828125 21.3118489583333  7.880859375 20.302734375  C 8.837890625 19.2936197916667  9.765625 18.4830729166667  10.6640625 17.87109375  C 11.5625 17.2591145833333  12.412109375 16.7317708333333  13.212890625 16.2890625  C 14.013671875 15.8463541666667  14.6614583333334 15.5338541666667  15.15625 15.3515625  L 15.87890625 15.09765625  C 15.9309895833334 15.0846354166667  16.015625 15.0618489583333  16.1328125 15.029296875  Z M 2.4609375 12.36328125  C 6.39322916666663 12.36328125  10.3385416666666 11.8424479166667  14.296875 10.80078125  C 12.734375 8.02734375  11.1458333333334 5.56640625  9.53125 3.41796875  C 7.734375 4.26432291666674  6.2109375 5.47526041666674  4.9609375 7.05078125  C 3.7109375 8.62630208333326  2.87760416666663 10.3971354166667  2.4609375 12.36328125  Z M 25.78125 21.923828125  C 26.7447916666666 20.4329427083333  27.3697916666666 18.8020833333333  27.65625 17.03125  C 24.921875 16.25  22.2591145833334 16.0611979166667  19.66796875 16.46484375  C 20.80078125 19.5768229166667  21.6341145833334 22.6302083333333  22.16796875 25.625  C 23.61328125 24.6484375  24.8177083333334 23.4147135416667  25.78125 21.923828125  Z M 11.89453125 2.578125  C 11.9075520833334 2.56510416666674  11.9205729166666 2.55859375  11.93359375 2.55859375  C 11.9205729166666 2.55859375  11.9075520833334 2.56510416666674  11.89453125 2.578125  Z M 23.212890625 5.732421875  L 23.45703125 5.390625  C 21.0481770833334 3.25520833333326  18.2291666666666 2.1875  15 2.1875  C 14.0104166666666 2.1875  13.0013020833334 2.31119791666674  11.97265625 2.55859375  C 13.6783854166666 4.77213541666674  15.2799479166666 7.25911458333326  16.77734375 10.01953125  C 17.67578125 9.68098958333326  18.5221354166666 9.287109375  19.31640625 8.837890625  C 20.1106770833334 8.388671875  20.7389322916666 7.98828125  21.201171875 7.63671875  C 21.6634114583334 7.28515625  22.08984375 6.9140625  22.48046875 6.5234375  C 22.87109375 6.1328125  23.115234375 5.869140625  23.212890625 5.732421875  Z M 27.6171875 14.82421875  L 27.8125 14.86328125  C 27.7734375 11.8424479166667  26.8033854166666 9.17317708333326  24.90234375 6.85546875  L 24.8828125 6.875  C 24.765625 7.03125  24.6419270833334 7.19075520833326  24.51171875 7.353515625  C 24.3815104166666 7.51627604166674  24.0983072916666 7.80598958333326  23.662109375 8.22265625  C 23.2259114583334 8.63932291666674  22.763671875 9.033203125  22.275390625 9.404296875  C 21.787109375 9.775390625  21.1360677083334 10.1985677083333  20.322265625 10.673828125  C 19.5084635416666 11.1490885416667  18.65234375 11.5690104166667  17.75390625 11.93359375  C 18.0794270833334 12.6236979166667  18.3658854166666 13.2421875  18.61328125 13.7890625  C 18.6393229166666 13.8541666666667  18.681640625 13.96484375  18.740234375 14.12109375  C 18.798828125 14.27734375  18.84765625 14.3880208333333  18.88671875 14.453125  C 19.35546875 14.3880208333333  19.8404947916666 14.3424479166667  20.341796875 14.31640625  C 20.8430989583334 14.2903645833333  21.3216145833334 14.27734375  21.77734375 14.27734375  C 22.2330729166666 14.27734375  22.6822916666666 14.287109375  23.125 14.306640625  C 23.5677083333334 14.326171875  23.984375 14.3522135416667  24.375 14.384765625  C 24.765625 14.4173177083333  25.1334635416666 14.453125  25.478515625 14.4921875  C 25.8235677083334 14.53125  26.1360677083334 14.5735677083333  26.416015625 14.619140625  C 26.6959635416666 14.6647135416667  26.93359375 14.7037760416667  27.12890625 14.736328125  C 27.32421875 14.7688802083333  27.4869791666666 14.7981770833333  27.6171875 14.82421875  Z M 27.98828125 7.470703125  C 29.3294270833334 9.76888020833326  30 12.2786458333333  30 15  C 30 17.7213541666667  29.3294270833334 20.2311197916667  27.98828125 22.529296875  C 26.6471354166666 24.8274739583333  24.8274739583334 26.6471354166667  22.529296875 27.98828125  C 20.2311197916666 29.3294270833333  17.7213541666666 30  15 30  C 12.2786458333334 30  9.76888020833337 29.3294270833333  7.470703125 27.98828125  C 5.17252604166663 26.6471354166667  3.35286458333337 24.8274739583333  2.01171875 22.529296875  C 0.670572916666629 20.2311197916667  0 17.7213541666667  0 15  C 0 12.2786458333333  0.670572916666629 9.76888020833326  2.01171875 7.470703125  C 3.35286458333337 5.17252604166674  5.17252604166663 3.35286458333326  7.470703125 2.01171875  C 9.76888020833337 0.670572916666742  12.2786458333334 0  15 0  C 17.7213541666666 0  20.2311197916666 0.670572916666742  22.529296875 2.01171875  C 24.8274739583334 3.35286458333326  26.6471354166666 5.17252604166674  27.98828125 7.470703125  Z " fill-rule="nonzero" fill="#cccccc" stroke="none" transform="matrix(1 0 0 1 373 47 )" />
  </g>
</svg>