<?xml version="1.0" encoding="utf-8"?>
<svg version="1.1" xmlns:xlink="http://www.w3.org/1999/xlink" width="30px" height="19px" xmlns="http://www.w3.org/2000/svg">
  <g transform="matrix(1 0 0 1 -427 -52 )">
    <path d="M 27.0703125 3.02757009345783  L 27.0703125 1.23130841121497  L 19.5849609375 1.23130841121497  L 19.5849609375 3.02757009345783  L 27.0703125 3.02757009345783  Z M 26.30859375 10.2271028037383  C 26.1328125 8.34392523364477  25.15625 7.40233644859813  23.37890625 7.40233644859813  C 22.5 7.40233644859813  21.787109375 7.65584112149531  21.240234375 8.16285046728967  C 20.693359375 8.66985981308403  20.390625 9.35794392523349  20.33203125 10.2271028037383  L 26.30859375 10.2271028037383  Z M 21.17431640625 15.0002336448597  C 21.73583984375 15.5845015576324  22.548828125 15.8766355140185  23.61328125 15.8766355140185  C 24.228515625 15.8766355140185  24.82421875 15.7221183800623  25.400390625 15.4130841121494  C 25.9765625 15.1040498442367  26.34765625 14.6839563862927  26.513671875 14.1528037383177  L 29.7509765625 14.1528037383177  C 28.7744140625 17.1176012461058  26.689453125 18.5999999999999  23.49609375 18.5999999999999  C 21.40625 18.5999999999999  19.74365234375 17.9626168224297  18.50830078125 16.6878504672895  C 17.27294921875 15.4130841121494  16.6552734375 13.7375389408098  16.6552734375 11.6612149532709  C 16.6552734375 9.65249221183785  17.29248046875 7.98419003115259  18.56689453125 6.65630841121492  C 19.84130859375 5.32842679127725  21.484375 4.66448598130842  23.49609375 4.66448598130842  C 24.84375 4.66448598130842  26.01806640625 4.9928348909657  27.01904296875 5.64953271028025  C 28.02001953125 6.30623052959504  28.76708984375 7.17056074766356  29.26025390625 8.24252336448603  C 29.75341796875 9.31448598130828  30 10.5119937694703  30 11.835046728972  C 30 11.9992211838005  29.990234375 12.226168224299  29.970703125 12.5158878504672  L 20.33203125 12.5158878504672  C 20.33203125 13.5878504672896  20.61279296875 14.4159657320872  21.17431640625 15.0002336448597  Z M 4.0576171875 10.1257009345793  L 4.0576171875 15.1523364485981  L 8.3935546875 15.1523364485981  C 10.3955078125 15.1523364485981  11.396484375 14.3459501557631  11.396484375 12.7331775700934  C 11.396484375 10.9948598130841  10.4248046875 10.1257009345793  8.4814453125 10.1257009345793  L 4.0576171875 10.1257009345793  Z M 4.0576171875 3.11448598130846  L 4.0576171875 7.37336448598126  L 8.173828125 7.37336448598126  C 8.935546875 7.37336448598126  9.53857421875 7.19711838006219  9.98291015625 6.84462616822429  C 10.42724609375 6.49213395638617  10.6494140625 5.94408099688462  10.6494140625 5.20046728971965  C 10.6494140625 3.80981308411219  9.7216796875 3.11448598130846  7.8662109375 3.11448598130846  L 4.0576171875 3.11448598130846  Z M 0 18.252336448598  L 0 0  L 8.701171875 0  C 9.55078125 0  10.3076171875 0.0676012461058235  10.9716796875 0.202803738317698  C 11.6357421875 0.338006230529572  12.25341796875 0.567367601246133  12.82470703125 0.890887850467379  C 13.39599609375 1.2144080996884  13.83544921875 1.6803738317758  14.14306640625 2.28878504672889  C 14.45068359375 2.89719626168221  14.6044921875 3.64080996884741  14.6044921875 4.51962616822425  C 14.6044921875 6.26760124610587  13.7646484375 7.53753894081001  12.0849609375 8.32943925233644  C 13.1982421875 8.63847352024914  14.0380859375 9.19376947040496  14.6044921875 9.99532710280369  C 15.1708984375 10.7968847352024  15.4541015625 11.7819314641745  15.4541015625 12.9504672897197  C 15.4541015625 13.67476635514  15.33447265625 14.3338785046728  15.09521484375 14.9278037383176  C 14.85595703125 15.5217289719626  14.53369140625 16.0214953271027  14.12841796875 16.4271028037383  C 13.72314453125 16.8327102803737  13.2421875 17.1755451713395  12.685546875 17.4556074766354  C 12.12890625 17.7356697819314  11.5380859375 17.9384735202491  10.9130859375 18.0640186915887  C 10.2880859375 18.1895638629283  9.6337890625 18.252336448598  8.9501953125 18.252336448598  L 0 18.252336448598  Z " fill-rule="nonzero" fill="#1261fb" stroke="none" transform="matrix(1 0 0 1 427 52 )" />
  </g>
</svg>