<?xml version="1.0" encoding="utf-8"?>
<svg version="1.1" xmlns:xlink="http://www.w3.org/1999/xlink" width="30px" height="30px" xmlns="http://www.w3.org/2000/svg">
  <g transform="matrix(1 0 0 1 -482 -47 )">
    <path d="M 7.470703125 2.02014676450972  C 9.76888020833337 0.673382254836497  12.2786458333334 0  15 0  C 17.7213541666666 0  20.2311197916666 0.673382254836497  22.529296875 2.02014676450972  C 24.8274739583334 3.36691127418271  26.6471354166666 5.19419613075388  27.98828125 7.50200133422277  C 29.3294270833334 9.80980653769188  30 12.330086724483  30 15.0628418945964  C 30 18.3447631754505  29.0462239583334 21.2965310206805  27.138671875 23.918145430287  C 25.2311197916666 26.5397598398933  22.7669270833334 28.3539693128753  19.74609375 29.3607738492328  C 19.39453125 29.4261507671781  19.1341145833334 29.3803869246165  18.96484375 29.2234823215479  C 18.7955729166666 29.066577718479  18.7109375 28.8704469646432  18.7109375 28.6350900600401  C 18.7109375 28.595863909273  18.7141927083334 28.0957304869914  18.720703125 27.1346897931955  C 18.7272135416666 26.1736490993997  18.73046875 25.2943295530354  18.73046875 24.4967311541029  C 18.73046875 23.228418945964  18.3919270833334 22.3000667111407  17.71484375 21.7116744496332  C 18.45703125 21.6332221480989  19.1243489583334 21.5155436957973  19.716796875 21.3586390927285  C 20.3092447916666 21.2017344896599  20.9212239583334 20.9467645096731  21.552734375 20.5937291527687  C 22.1842447916666 20.240693795864  22.7115885416666 19.8059372915277  23.134765625 19.2894596397598  C 23.5579427083334 18.7729819879921  23.9029947916666 18.0865243495664  24.169921875 17.230086724483  C 24.4368489583334 16.3736490993997  24.5703125 15.3897264843229  24.5703125 14.278318879253  C 24.5703125 12.7223482321549  24.0559895833334 11.3755837224817  23.02734375 10.2380253502336  C 23.5091145833334 9.04816544362916  23.45703125 7.71447631754495  22.87109375 6.23695797198138  C 22.5065104166666 6.11927951967982  21.9791666666666 6.19119412941973  21.2890625 6.45270180120087  C 20.5989583333334 6.71420947298202  20 7.00186791194142  19.4921875 7.31567711807884  L 18.75 7.78639092728486  C 17.5390625 7.44643095396941  16.2890625 7.27645096731158  15 7.27645096731158  C 13.7109375 7.27645096731158  12.4609375 7.44643095396941  11.25 7.78639092728486  C 11.0416666666666 7.64256170780527  10.7649739583334 7.46604402935282  10.419921875 7.25683789192794  C 10.0748697916666 7.04763175450307  9.53125 6.79593062041363  8.7890625 6.50173448965984  C 8.046875 6.20753835890605  7.49348958333337 6.11927951967982  7.12890625 6.23695797198138  C 6.54296875 7.71447631754495  6.49088541666663 9.04816544362916  6.97265625 10.2380253502336  C 5.94401041666663 11.3755837224817  5.4296875 12.7223482321549  5.4296875 14.278318879253  C 5.4296875 15.3897264843229  5.56315104166663 16.3703802535024  5.830078125 17.2202801867913  C 6.09700520833337 18.0701801200801  6.43880208333337 18.7566377585058  6.85546875 19.2796531020681  C 7.27213541666663 19.8026684456304  7.79622395833337 20.240693795864  8.427734375 20.5937291527687  C 9.05924479166663 20.9467645096731  9.67122395833337 21.2017344896599  10.263671875 21.3586390927285  C 10.8561197916666 21.5155436957973  11.5234375 21.6332221480989  12.265625 21.7116744496332  C 11.7578125 22.1823882588392  11.4388020833334 22.8557705136759  11.30859375 23.7318212141429  C 11.03515625 23.8625750500335  10.7421875 23.9606404269514  10.4296875 24.0260173448967  C 10.1171875 24.091394262842  9.74609375 24.1240827218146  9.31640625 24.1240827218146  C 8.88671875 24.1240827218146  8.46028645833337 23.9835223482323  8.037109375 23.7024016010675  C 7.61393229166663 23.4212808539028  7.25260416666663 23.0126751167445  6.953125 22.4765843895932  C 6.70572916666663 22.0581721147432  6.38997395833337 21.7182121414278  6.005859375 21.4567044696464  C 5.62174479166663 21.1951967978653  5.29947916666663 21.0382921947967  5.0390625 20.9859906604404  L 4.6484375 20.9271514342895  C 4.375 20.9271514342895  4.18619791666663 20.9565710473651  4.08203125 21.0154102735157  C 3.97786458333337 21.0742494996666  3.9453125 21.1494329553036  3.984375 21.2409606404269  C 4.0234375 21.3324883255505  4.08203125 21.4240160106738  4.16015625 21.5155436957973  C 4.23828125 21.6070713809206  4.32291666666663 21.6855236824551  4.4140625 21.7509006004004  L 4.55078125 21.8489659773184  C 4.83723958333337 21.9797198132089  5.12044270833337 22.2281521014011  5.400390625 22.5942628418948  C 5.68033854166663 22.9603735823882  5.88541666666663 23.2937958639093  6.015625 23.5945296864577  L 6.2109375 24.0456304202803  C 6.38020833333337 24.5424949966646  6.66666666666663 24.944563042028  7.0703125 25.251834556371  C 7.47395833333337 25.5591060707138  7.91015625 25.7552368245497  8.37890625 25.8402268178786  C 8.84765625 25.9252168112075  9.30013020833337 25.9709806537692  9.736328125 25.9775183455638  C 10.1725260416666 25.9840560373584  10.5338541666666 25.9611741160775  10.8203125 25.9088725817212  L 11.26953125 25.8304202801869  C 11.26953125 26.3272848565712  11.2727864583334 26.905870580387  11.279296875 27.5661774516345  C 11.2858072916666 28.226484322882  11.2890625 28.5827885256838  11.2890625 28.6350900600401  C 11.2890625 28.8704469646432  11.2044270833334 29.066577718479  11.03515625 29.2234823215479  C 10.8658854166666 29.3803869246165  10.60546875 29.4261507671781  10.25390625 29.3607738492328  C 7.23307291666663 28.3539693128753  4.76888020833337 26.5397598398933  2.861328125 23.918145430287  C 0.953776041666629 21.2965310206805  0 18.3447631754505  0 15.0628418945964  C 0 12.330086724483  0.670572916666629 9.80980653769188  2.01171875 7.50200133422277  C 3.35286458333337 5.19419613075388  5.17252604166663 3.36691127418271  7.470703125 2.02014676450972  Z M 5.4296875 21.6724482988659  C 5.546875 21.7509006004004  5.63151041666663 21.7378252168112  5.68359375 21.6332221480989  C 5.72265625 21.5416944629753  5.67708333333337 21.463242161441  5.546875 21.3978652434957  C 5.41666666666663 21.3586390927285  5.33203125 21.3717144763177  5.29296875 21.437091394263  C 5.25390625 21.5286190793863  5.29947916666663 21.6070713809206  5.4296875 21.6724482988659  Z M 5.9765625 22.2412274849901  C 6.10677083333337 22.3719813208806  6.2109375 22.3915943962643  6.2890625 22.3000667111407  C 6.38020833333337 22.2346897931955  6.3671875 22.1300867244831  6.25 21.9862575050033  C 6.11979166666663 21.8685790527018  6.015625 21.8489659773184  5.9375 21.9274182788527  C 5.84635416666663 21.9927951967979  5.859375 22.0973982655105  5.9765625 22.2412274849901  Z M 6.54296875 23.0453635757171  C 6.66015625 23.215343562375  6.77083333333337 23.2611074049366  6.875 23.1826551034023  C 6.9921875 23.091127418279  6.9921875 22.9669112741828  6.875 22.8100066711143  C 6.77083333333337 22.6400266844564  6.66015625 22.6008005336892  6.54296875 22.6923282188127  C 6.42578125 22.757705136758  6.42578125 22.8753835890595  6.54296875 23.0453635757171  Z M 7.3046875 23.9475650433624  C 7.4609375 24.104469646431  7.59114583333337 24.1240827218146  7.6953125 24.006404269513  C 7.79947916666663 23.9018012008007  7.7734375 23.7775850567045  7.6171875 23.633755837225  C 7.4609375 23.4768512341561  7.33072916666663 23.4572381587725  7.2265625 23.5749166110741  C 7.109375 23.6795196797866  7.13541666666663 23.8037358238826  7.3046875 23.9475650433624  Z M 8.4375 24.6144096064043  C 8.6328125 24.6928619079388  8.75651041666663 24.6536357571715  8.80859375 24.4967311541029  C 8.84765625 24.3529019346231  8.76302083333337 24.2482988659108  8.5546875 24.1829219479655  C 8.359375 24.1306204136092  8.23567708333337 24.1763842561709  8.18359375 24.3202134756505  C 8.13151041666663 24.46404269513  8.21614583333337 24.5621080720482  8.4375 24.6144096064043  Z M 9.7265625 24.8105403602403  C 9.93489583333337 24.8105403602403  10.0390625 24.7386257505004  10.0390625 24.5947965310208  C 10.0390625 24.424816544363  9.92838541666663 24.3529019346231  9.70703125 24.3790527018014  C 9.49869791666663 24.3790527018014  9.39453125 24.450967311541  9.39453125 24.5947965310208  C 9.39453125 24.7647765176785  9.50520833333337 24.8366911274184  9.7265625 24.8105403602403  Z M 10.8984375 24.6732488325551  C 11.1067708333334 24.6209472981989  11.1979166666666 24.5294196130756  11.171875 24.3986657771848  C 11.1458333333334 24.2548365577052  11.0286458333334 24.1959973315545  10.8203125 24.2221480987325  C 10.6119791666666 24.2613742494998  10.5208333333334 24.3594396264177  10.546875 24.5163442294863  C 10.5729166666666 24.6732488325551  10.6901041666666 24.7255503669114  10.8984375 24.6732488325551  Z " fill-rule="nonzero" fill="#000000" stroke="none" transform="matrix(1 0 0 1 482 47 )" />
  </g>
</svg>