<?xml version="1.0" encoding="utf-8"?>
<svg version="1.1" xmlns:xlink="http://www.w3.org/1999/xlink" width="30px" height="25px" xmlns="http://www.w3.org/2000/svg">
  <g transform="matrix(1 0 0 1 -536 -49 )">
    <path d="M 26.4593908629441 3.88218749999987  C 27.6395939086294 3.75406249999992  28.8197969543147 3.43374999999992  30 2.9212500000001  C 29.1497461928934 4.17687499999988  28.1218274111675 5.2467187499999  26.9162436548223 6.13078124999993  C 26.9289340101523 6.31015624999986  26.9352791878173 6.57921874999988  26.9352791878173 6.93796874999998  C 26.9352791878173 8.60359375000007  26.6941624365483 10.2660156249999  26.2119289340102 11.9252343749999  C 25.7296954314721 13.584453125  24.9968274111675 15.1764062499999  24.0133248730964 16.7010937499999  C 23.0298223350254 18.22578125  21.8591370558376 19.5742968749998  20.501269035533 20.7466406249998  C 19.1434010152284 21.9189843749998  17.506345177665 22.8542968749998  15.5901015228426 23.5525781249999  C 13.6738578680203 24.2508593749999  11.6243654822335 24.5999999999999  9.4416243654822 24.5999999999999  C 6.00253807106594 24.5999999999999  2.85532994923858 23.67109375  0 21.8132812499998  C 0.444162436548254 21.86453125  0.939086294416256 21.89015625  1.48477157360401 21.89015625  C 4.34010152284259 21.89015625  6.88451776649742 21.00609375  9.11802030456852 19.2379687499999  C 7.78553299492387 19.2123437499999  6.59263959390864 18.7991406249998  5.53934010152284 17.9983593749998  C 4.48604060913704 17.1975781249998  3.76269035532994 16.17578125  3.36928934010155 14.9329687499999  C 3.78807106598981 14.99703125  4.17512690355329 15.0290625  4.53045685279187 15.0290625  C 5.07614213197974 15.0290625  5.61548223350258 14.9585937499999  6.14847715736039 14.81765625  C 4.72715736040607 14.52296875  3.55012690355329 13.8086718749998  2.61738578680206 12.674765625  C 1.68464467005072 11.5408593749999  1.2182741116751 10.224375  1.2182741116751 8.72531249999997  L 1.2182741116751 8.6484375  C 2.08121827411162 9.13531250000005  3.00761421319794 9.39796875000002  3.99746192893406 9.43640624999989  C 3.15989847715741 8.87265624999986  2.49365482233497 8.13593749999995  1.99873096446697 7.22624999999994  C 1.50380710659897 6.31656249999992  1.25634517766503 5.32999999999993  1.25634517766503 4.26656249999996  C 1.25634517766503 3.13906249999991  1.53553299492387 2.09484374999988  2.09390862944167 1.13390625000011  C 3.62944162436543 3.04296875  5.49809644670052 4.57085937500005  7.69987309644671 5.71757812500005  C 9.9016497461929 6.86429687500004  12.258883248731 7.50171875000001  14.7715736040609 7.62984374999996  C 14.6700507614213 7.14296874999991  14.6192893401015 6.66890624999996  14.6192893401015 6.2076562499999  C 14.6192893401015 4.49078125000005  15.2189086294417 3.02695312500009  16.4181472081218 1.81617187500001  C 17.6173857868021 0.605390624999927  19.0672588832488 0  20.7677664974619 0  C 22.5444162436548 0  24.0418781725888 0.653437500000109  25.260152284264 1.9603125000001  C 26.6434010152284 1.69125000000008  27.9441624365483 1.19156249999992  29.1624365482234 0.461250000000064  C 28.6928934010152 1.93468749999988  27.7918781725889 3.07500000000005  26.4593908629441 3.88218749999987  Z " fill-rule="nonzero" fill="#33a0ce" stroke="none" transform="matrix(1 0 0 1 536 49 )" />
  </g>
</svg>