<?xml version="1.0" encoding="UTF-8"?>
<svg width="1200px" height="600px" viewBox="0 0 1200 600" version="1.1" xmlns="http://www.w3.org/2000/svg" xmlns:xlink="http://www.w3.org/1999/xlink">
    <title>Artboard</title>
    <defs>
        <linearGradient x1="50%" y1="0%" x2="50%" y2="100%" id="linearGradient-1">
            <stop stop-color="#049098" offset="0%"></stop>
            <stop stop-color="#67BFC4" stop-opacity="0.582878059" offset="49.7034508%"></stop>
            <stop stop-color="#D8D8D8" stop-opacity="0" offset="100%"></stop>
        </linearGradient>
        <polygon id="path-2" points="0 0.014431635 50.9867296 0.014431635 50.9867296 50.9999699 0 50.9999699"></polygon>
        <polygon id="path-4" points="0.119662891 0.198014085 51.8665253 0.198014085 51.8665253 50.9441095 0.119662891 50.9441095"></polygon>
        <polygon id="path-6" points="0 0.014431635 50.9867296 0.014431635 50.9867296 50.9999699 0 50.9999699"></polygon>
        <polygon id="path-8" points="0.119662891 0.198014085 51.8665253 0.198014085 51.8665253 50.9441095 0.119662891 50.9441095"></polygon>
        <polygon id="path-10" points="0 0.014431635 50.9867296 0.014431635 50.9867296 50.9999699 0 50.9999699"></polygon>
        <polygon id="path-12" points="0.119662891 0.198014085 51.8665253 0.198014085 51.8665253 50.9441095 0.119662891 50.9441095"></polygon>
    </defs>
    <g id="Artboard" stroke="none" stroke-width="1" fill="none" fill-rule="evenodd">
        <rect id="Rectangle" fill="url(#linearGradient-1)" x="0" y="0" width="1200" height="197"></rect>
        <g id="002-parking-1" transform="translate(283.000000, 350.000000) rotate(-19.000000) translate(-283.000000, -350.000000) translate(233.000000, 300.000000)" fill-rule="nonzero">
            <g id="Group" transform="translate(6.451613, 6.451613)" fill="#78EEEE">
                <polygon id="Path" fill-opacity="0.581594187" points="75.5016129 64.516129 73.2677419 50 44.4741935 50 42.2403226 64.516129"></polygon>
                <circle id="Oval" fill-opacity="0.593913899" cx="16.1290323" cy="16.1290323" r="16.1290323"></circle>
            </g>
            <path d="M95.1612903,72.5806452 C97.8290323,72.5806452 100,70.4096774 100,67.7419355 C100,65.0741935 97.8290323,62.9032258 95.1612903,62.9032258 L90.3225806,62.9032258 L90.3225806,66.1290323 L87.7354839,66.1290323 L85.8854839,54.1032258 C85.5193548,51.7258065 83.5096774,50 81.1032258,50 L49.5419355,50 C47.1354839,50 45.1258065,51.7258065 44.7596774,54.1032258 L42.9096774,66.1290323 L40.3225806,66.1290323 L40.3225806,62.9032258 L35.483871,62.9032258 C32.816129,62.9032258 30.6451613,65.0741935 30.6451613,67.7419355 C30.6451613,70.4096774 32.816129,72.5806452 35.483871,72.5806452 L40.3225806,72.5806452 L40.3225806,69.3548387 L42.4129032,69.3548387 L42.1193548,71.2612903 C39.0935484,73.2887097 37.0967742,76.7370968 37.0967742,80.6451613 L37.0967742,90.3225806 L40.3225806,90.3225806 L40.3225806,93.5483871 C40.3225806,94.7290323 40.6645161,95.8209677 41.2193548,96.7741935 L27.4193548,96.7741935 L27.4193548,44.6258065 C37.5516129,42.4032258 45.1612903,33.3693548 45.1612903,22.5806452 C45.1612903,10.1290323 35.0322581,0 22.5806452,0 C10.1290323,0 0,10.1290323 0,22.5806452 C0,33.3693548 7.60967742,42.4032258 17.7419355,44.6258065 L17.7419355,96.7741935 L6.4516129,96.7741935 L6.4516129,100 L17.7419355,100 L27.4193548,100 L93.5483871,100 L93.5483871,96.7741935 L89.4258065,96.7741935 C89.9806452,95.8209677 90.3225806,94.7290323 90.3225806,93.5483871 L90.3225806,90.3225806 L93.5483871,90.3225806 L93.5483871,80.6451613 C93.5483871,76.7370968 91.5516129,73.2887097 88.5258065,71.2612903 L88.2322581,69.3548387 L90.3225806,69.3548387 L90.3225806,72.5806452 L95.1612903,72.5806452 Z M37.0967742,69.3548387 L35.483871,69.3548387 C34.5951613,69.3548387 33.8709677,68.6306452 33.8709677,67.7419355 C33.8709677,66.8532258 34.5951613,66.1290323 35.483871,66.1290323 L37.0967742,66.1290323 L37.0967742,69.3548387 Z M3.22580645,22.5806452 C3.22580645,11.9080645 11.9080645,3.22580645 22.5806452,3.22580645 C33.2532258,3.22580645 41.9354839,11.9080645 41.9354839,22.5806452 C41.9354839,33.2532258 33.2532258,41.9354839 22.5806452,41.9354839 C11.9080645,41.9354839 3.22580645,33.2532258 3.22580645,22.5806452 Z M22.5806452,45.1612903 C23.1258065,45.1612903 23.6580645,45.1177419 24.1935484,45.0790323 L24.1935484,48.3870968 L20.9677419,48.3870968 L20.9677419,45.0790323 C21.5032258,45.1177419 22.0354839,45.1612903 22.5806452,45.1612903 Z M20.9677419,96.7741935 L20.9677419,51.6129032 L24.1935484,51.6129032 L24.1935484,96.7741935 L20.9677419,96.7741935 Z M90.1596774,79.0322581 L75.5096774,79.0322581 C74.8419355,77.1596774 73.0677419,75.8064516 70.9677419,75.8064516 L59.6774194,75.8064516 C57.5774194,75.8064516 55.8032258,77.1596774 55.1354839,79.0322581 L40.4854839,79.0322581 C41.2354839,75.3564516 44.4919355,72.5806452 48.3870968,72.5806452 L82.2580645,72.5806452 C86.1516129,72.5806452 89.4096774,75.3564516 90.1596774,79.0322581 Z M40.3225806,87.0967742 L40.3225806,82.2580645 L54.8387097,82.2580645 L54.8387097,87.0967742 L40.3225806,87.0967742 Z M53.2258065,90.3225806 L77.4193548,90.3225806 L77.4193548,93.5483871 C77.4193548,94.7290323 77.7612903,95.8209677 78.316129,96.7741935 L52.3290323,96.7741935 C52.883871,95.8209677 53.2258065,94.7290323 53.2258065,93.5483871 L53.2258065,90.3225806 Z M58.0645161,87.0967742 L58.0645161,80.6451613 C58.0645161,79.7564516 58.7887097,79.0322581 59.6774194,79.0322581 L70.9677419,79.0322581 C71.8564516,79.0322581 72.5806452,79.7564516 72.5806452,80.6451613 L72.5806452,87.0967742 L58.0645161,87.0967742 Z M43.5483871,93.5483871 L43.5483871,90.3225806 L50,90.3225806 L50,93.5483871 C50,95.3274194 48.5532258,96.7741935 46.7741935,96.7741935 C44.9951613,96.7741935 43.5483871,95.3274194 43.5483871,93.5483871 Z M87.0967742,93.5483871 C87.0967742,95.3274194 85.65,96.7741935 83.8709677,96.7741935 C82.0919355,96.7741935 80.6451613,95.3274194 80.6451613,93.5483871 L80.6451613,90.3225806 L87.0967742,90.3225806 L87.0967742,93.5483871 Z M75.8064516,87.0967742 L75.8064516,82.2580645 L90.3225806,82.2580645 L90.3225806,87.0967742 L75.8064516,87.0967742 Z M82.2580645,69.3548387 L48.3870968,69.3548387 C47.4322581,69.3548387 46.5080645,69.4870968 45.6209677,69.7112903 L47.9467742,54.5919355 C48.0693548,53.8 48.7403226,53.2258065 49.5419355,53.2258065 L81.1032258,53.2258065 C81.9048387,53.2258065 82.5758065,53.8 82.6967742,54.5935484 L85.0225806,69.7129032 C84.1370968,69.4870968 83.2129032,69.3548387 82.2580645,69.3548387 Z M93.5483871,66.1290323 L95.1612903,66.1290323 C96.05,66.1290323 96.7741935,66.8532258 96.7741935,67.7419355 C96.7741935,68.6306452 96.05,69.3548387 95.1612903,69.3548387 L93.5483871,69.3548387 L93.5483871,66.1290323 Z" id="Shape" fill="#006E77"></path>
            <path d="M32.2580645,17.7419355 C32.2580645,14.183871 29.3645161,11.2903226 25.8064516,11.2903226 L16.1290323,11.2903226 L16.1290323,32.2580645 L19.3548387,32.2580645 L19.3548387,24.1935484 L25.8064516,24.1935484 C29.3645161,24.1935484 32.2580645,21.3 32.2580645,17.7419355 Z M19.3548387,14.516129 L25.8064516,14.516129 C27.5854839,14.516129 29.0322581,15.9629032 29.0322581,17.7419355 C29.0322581,19.5209677 27.5854839,20.9677419 25.8064516,20.9677419 L19.3548387,20.9677419 L19.3548387,14.516129 Z" id="Shape" fill="#006E77"></path>
            <rect id="Rectangle" fill="#006E77" x="51.6129032" y="62.9032258" width="20.9677419" height="3.22580645"></rect>
            <rect id="Rectangle" fill="#006E77" x="75.8064516" y="62.9032258" width="3.22580645" height="3.22580645"></rect>
            <rect id="Rectangle" fill="#006E77" x="96.7741935" y="96.7741935" width="3.22580645" height="3.22580645"></rect>
            <rect id="Rectangle" fill="#006E77" x="0" y="96.7741935" width="3.22580645" height="3.22580645"></rect>
        </g>
        <g id="005-car-2" transform="translate(140.879165, 241.111216) rotate(-330.000000) translate(-140.879165, -241.111216) translate(113.879165, 204.111216)" fill-rule="nonzero">
            <path d="M43.8964733,32.1368043 L41.3580583,30.8569618 C41.2946155,30.8249016 41.2273578,30.8236192 41.1613717,30.8032432 L41.6448928,22.5094876 C41.9228256,17.750759 38.9541587,13.4707958 34.4257054,12.1000449 C30.2855385,10.8469904 25.9106759,10.8469904 21.770509,12.1000449 C17.2433274,13.4707958 14.2746605,17.7509015 14.5513216,22.5094876 L15.0348427,30.8032432 C14.9688566,30.8237617 14.9015989,30.8250441 14.8381562,30.8569618 L12.2997411,32.1368043 C11.6728028,32.452989 11.4188906,33.2221484 11.7324304,33.8543752 C11.9545506,34.3036452 12.4026059,34.5621215 12.8683235,34.5621215 C13.0586516,34.5621215 13.2529361,34.5186622 13.4343625,34.4277537 L15.1935201,33.5407553 L15.4016518,37.1078425 L14.1361887,52.4807715 C14.1361887,56.715993 17.5516392,60.160254 21.7514338,60.160254 L34.443509,60.160254 C38.6433036,60.160254 42.0587541,56.715993 42.0536673,52.3746167 L40.7932909,37.1052777 L41.0014226,33.5394729 L42.7605803,34.4264713 C42.9420066,34.5186622 43.1362911,34.5621215 43.3266193,34.5621215 C43.7924781,34.5621215 44.2403921,34.3036452 44.463784,33.8543752 C44.7771825,33.2221484 44.5234116,32.4528465 43.8964733,32.1368043 Z M34.4433677,57.600569 L21.7512925,57.600569 C18.9514765,57.600569 16.6744624,55.3043475 16.6693757,52.5872113 L17.9385126,37.2283888 C17.9435993,37.1682582 17.944871,37.1068451 17.9410559,37.046572 L17.0843673,22.3595884 C16.8762357,18.7912188 19.1036542,15.5799284 22.4987579,14.5521502 C24.33026,13.9980077 26.2137597,13.7214352 28.0972594,13.7214352 C29.9807591,13.7214352 31.8642589,13.9991476 33.695761,14.5521502 C37.0908646,15.5799284 39.3182832,18.7912188 39.1101515,22.3595884 L38.2534629,37.046572 C38.2496479,37.1067026 38.2509196,37.1681157 38.2560063,37.2283888 L39.5201977,52.4810565 C39.5201977,55.3043475 37.2433249,57.600569 34.4433677,57.600569 Z" id="Shape" fill="#038E98"></path>
            <path d="M34.7861035,48.2532554 L34.7861035,35.5812496 L35.9832988,27.9437652 C36.0817022,27.3179162 35.736885,26.7087335 35.1698494,26.5087377 L34.7958357,26.3758382 C30.0909946,24.7071948 24.9090054,24.7071948 20.2041643,26.3758382 L19.8301506,26.5087377 C19.263115,26.7087335 18.9182978,27.3179162 19.0167012,27.9437652 L20.2163296,35.5812496 L20.2163296,48.2532554 L19.0264334,54.5795603 C18.9547936,54.9590064 19.0483308,55.3525327 19.2777133,55.6506586 C19.5084474,55.9500777 19.852048,56.1243557 20.2161944,56.1243557 L34.7859683,56.1243557 C35.1502498,56.1243557 35.4938505,55.9500777 35.7244494,55.6519517 C35.9539671,55.3538257 36.0473691,54.9601558 35.9757293,54.5808534 L34.7861035,48.2532554 Z M21.6975158,53.5432313 L22.4259437,49.6716167 L32.5774356,49.6716167 L33.3058635,53.5432313 L21.6975158,53.5432313 Z M22.6445126,47.0903487 L22.6445126,36.7658514 L32.3577853,36.7658514 L32.3577853,47.0903487 L22.6445126,47.0903487 Z M32.5435081,34.1848707 L22.4575733,34.1848707 L21.5846493,28.6187512 C25.424947,27.4031156 29.5773509,27.4031156 33.4165672,28.6187512 L32.5435081,34.1848707 Z" id="Shape" fill="#038E98"></path>
            <path d="M22.7560655,19.0117956 C22.2348401,18.4905146 21.3923013,18.4905146 20.871076,19.0117956 L19.5380333,20.3449805 C19.016808,20.8662614 19.016808,21.7088901 19.5380333,22.230171 C19.7980523,22.4902178 20.1392531,22.6208349 20.4806022,22.6208349 C20.8219514,22.6208349 21.1631522,22.4902178 21.4231712,22.230171 L22.7562139,20.8969861 C23.2774392,20.3757052 23.2774392,19.5330765 22.7560655,19.0117956 Z" id="Path" fill="#008E98"></path>
            <path d="M36.6483703,20.4071583 L35.3153276,19.0739734 C34.7941023,18.5526925 33.9515635,18.5526925 33.4303382,19.0739734 C32.9091128,19.5952543 32.9091128,20.437883 33.4303382,20.959164 L34.7633809,22.2923489 C35.0233999,22.5523956 35.3646006,22.6830127 35.7059498,22.6830127 C36.0472989,22.6830127 36.3884997,22.5523956 36.6485187,22.2923489 C37.169744,21.7710679 37.169744,20.9284392 36.6483703,20.4071583 Z" id="Path" fill="#008E98"></path>
            <path d="M37.431724,5.21891109 L37.431724,7.88559425 C42.5770198,7.88559425 46.7650408,12.0736153 46.7650408,17.2189111 L49.431724,17.2189111 C49.431724,10.6015587 44.0490764,5.21891109 37.431724,5.21891109 Z" id="Path" fill="#008E98"></path>
            <path d="M37.5298002,0.852885683 L37.5298002,3.31443468 C44.9944664,3.31443468 51.0682512,9.3882195 51.0682512,16.8528857 L53.5298002,16.8528857 C53.5298002,8.03077079 46.3519151,0.852885683 37.5298002,0.852885683 Z" id="Path" fill="#008E98"></path>
            <path d="M5.1830127,17.3625046 L7.84969586,17.3625046 C7.84969586,12.2172089 12.0377169,8.02918779 17.1830127,8.02918779 L17.1830127,5.36250463 C10.5656603,5.36250463 5.1830127,10.7451523 5.1830127,17.3625046 Z" id="Path" fill="#008E98"></path>
            <path d="M0.816987298,17.2644284 L3.2785363,17.2644284 C3.2785363,9.79976223 9.35232111,3.72597742 16.8169873,3.72597742 L16.8169873,1.26442841 C7.99487241,1.26442841 0.816987298,8.44231352 0.816987298,17.2644284 Z" id="Path" fill="#008E98"></path>
            <path d="M46.2483803,56.3240289 C46.2483803,61.4693246 42.0603593,65.6573457 36.9150635,65.6573457 L36.9150635,68.3240289 C43.5324159,68.3240289 48.9150635,62.9413812 48.9150635,56.3240289 L46.2483803,56.3240289 Z" id="Path" fill="#008E98"></path>
            <path d="M51.3195399,57.2881305 C51.3195399,64.7527967 45.2457551,70.8265815 37.7810889,70.8265815 L37.7810889,73.2881305 C46.6032038,73.2881305 53.7810889,66.1102454 53.7810889,57.2881305 L51.3195399,57.2881305 Z" id="Path" fill="#008E98"></path>
            <path d="M8.69906077,56.8336478 L6.03237761,56.8336478 C6.03237761,63.4510002 11.4150252,68.8336478 18.0323776,68.8336478 L18.0323776,66.1669646 C12.8870818,66.1669646 8.69906077,61.9789436 8.69906077,56.8336478 Z" id="Path" fill="#008E98"></path>
            <path d="M3.52982499,57.6996732 L1.06827599,57.6996732 C1.06827599,66.5217881 8.2461611,73.6996732 17.068276,73.6996732 L17.068276,71.2381242 C9.60374682,71.2381242 3.52982499,65.1643394 3.52982499,57.6996732 Z" id="Path" fill="#008E98"></path>
        </g>
        <g id="006-car-service" transform="translate(977.259058, 258.265621) rotate(-15.000000) translate(-977.259058, -258.265621) translate(926.759058, 207.765621)" fill="#027E88" fill-rule="nonzero">
            <path d="M25.3185165,35.1763809 L25.3185165,91.8430476 C25.3185165,94.5532559 27.5126832,96.8430476 30.1101832,96.8430476 L65.3185165,96.8430476 L65.3185165,100.176381 L30.1101832,100.176381 C25.7058082,100.176381 21.9851832,96.3601309 21.9851832,91.8430476 L21.9851832,35.1763809 L25.3185165,35.1763809 Z M37.6218499,10.1763809 L38.8278915,12.5884642 C39.1102145,13.1530527 39.6872746,13.5096928 40.3185165,13.5097142 L60.3185165,13.5097142 C60.9497584,13.5096928 61.5268186,13.1530527 61.8091415,12.5884642 L63.0151832,10.1763809 L70.3185165,10.1763809 C73.0786552,10.1794808 75.3154166,12.4162422 75.3185165,15.1763809 L75.3185165,69.4861726 L71.2110165,65.3786726 C68.7192343,62.8868329 64.6792105,62.8867863 62.1873708,65.3785685 C59.695531,67.8703507 59.6954844,71.9103745 62.1872665,74.4022142 L68.2914332,80.5063809 L68.1747665,80.7397142 C65.2706292,86.5095764 65.4497496,93.3505675 68.6518499,98.9605476 L68.6518499,100.176381 L71.9851832,100.176381 L71.9851832,98.5097142 C71.985094,98.2076525 71.9030085,97.9112806 71.7476832,97.6522142 C68.9126548,92.9547963 68.68898,87.1305197 71.1553915,82.2295059 L71.8091415,80.9217976 C72.1299336,80.280064 72.0040518,79.5050516 71.4966415,78.9978392 L64.5439332,72.0453392 C63.3694399,70.8526351 63.3767895,68.9358789 64.5603946,67.7522165 C65.7439997,66.5685542 67.6607556,66.561112 68.8535165,67.7355476 L75.8062249,74.6882559 L80.8062249,79.6882559 L83.1633082,77.3311726 L78.6518499,72.8192976 L78.6518499,62.5332559 L86.2110165,70.0930476 C87.7789219,71.6522473 88.6578439,73.7739332 88.6518499,75.9851309 L88.6518499,100.176381 L91.9852279,100.176381 L91.9852279,75.9851309 C91.9937783,72.8891943 90.7634831,69.9184814 88.5685165,67.7351309 L78.6518499,57.8184642 L78.6518499,15.1763809 C78.6466833,10.5761497 74.9187477,6.84821412 70.3185165,6.84304757 L31.9851832,6.84304757 L31.9851832,10.1763809 L37.6218499,10.1763809 Z M37.6735165,33.7030476 L42.3185144,27.5097142 C42.6332738,27.0900378 43.1272544,26.8430476 43.6518499,26.8430476 L56.9851832,26.8430476 C57.5097787,26.8430476 58.0037592,27.0900378 58.3185144,27.5097142 L62.9643499,33.7030476 L67.7947665,34.9113809 C69.2792637,35.2811297 70.3204893,36.6152805 70.3185144,38.1451309 L70.3185144,43.5097142 C70.3185144,44.4301888 69.5723244,45.1763809 68.6518499,45.1763809 L65.0318499,45.1763809 C64.3249536,47.173073 62.4366482,48.5077021 60.3185144,48.5077021 C58.2003848,48.5077021 56.3120795,47.173073 55.6051832,45.1763809 L45.0318499,45.1763809 C44.3249536,47.173073 42.4366482,48.5077021 40.3185144,48.5077021 C38.2003848,48.5077021 36.3120795,47.173073 35.6051832,45.1763809 L31.9851832,45.1763809 C31.0647086,45.1763809 30.3185144,44.4301888 30.3185144,43.5097142 L30.3185144,38.1451309 C30.3167821,36.6149937 31.3585984,35.2808329 32.8435165,34.9115892 L37.6735165,33.7030476 Z M41.9851832,43.5097142 C41.9851832,42.5892397 41.2389911,41.8430476 40.3185165,41.8430476 C39.3980419,41.8430476 38.6518499,42.5892397 38.6518499,43.5097142 C38.6518499,44.4301888 39.3980419,45.1763809 40.3185165,45.1763809 C41.2385628,45.1753476 41.9841499,44.4297605 41.9851832,43.5097142 Z M61.9851832,43.5097142 C61.9851832,42.5892397 61.2389911,41.8430476 60.3185165,41.8430476 C59.3980419,41.8430476 58.6518499,42.5892397 58.6518499,43.5097142 C58.6518499,44.4301888 59.3980419,45.1763809 60.3185165,45.1763809 C61.2385628,45.1753476 61.9841499,44.4297605 61.9851832,43.5097142 L61.9851832,43.5097142 Z M39.0562249,36.7932559 L33.6518499,38.1453392 L33.6518499,41.8430476 L35.6051832,41.8430476 C36.3120795,39.8463554 38.2003848,38.5117264 40.3185165,38.5117264 C42.4366482,38.5117264 44.3249536,39.8463554 45.0318499,41.8430476 L55.6051832,41.8430476 C56.3120795,39.8463554 58.2003848,38.5117264 60.3185165,38.5117264 C62.4366482,38.5117264 64.3249536,39.8463554 65.0318499,41.8430476 L66.9851832,41.8430476 L66.9851832,38.1451309 L61.5808082,36.7932559 C61.2095111,36.7003935 60.8814877,36.4825695 60.6518499,36.1763809 L56.1518499,30.1763809 L44.4851832,30.1763809 L39.9851832,36.1763809 C39.7555453,36.4825695 39.427522,36.7003935 39.0562249,36.7932559 Z M0.318516526,26.2255476 C0.318941683,25.2479642 0.574133533,24.2873687 1.05893319,23.4384642 L12.2174749,3.91033924 C13.536929,1.60133861 15.9924433,0.176361767 18.6518499,0.176361767 C21.3112564,0.176361767 23.7667708,1.60133861 25.0862249,3.91033924 L36.2449749,23.4384642 C37.2384851,25.1770883 37.2313642,27.3131266 36.2262839,29.045088 C35.2212037,30.7770493 33.3701508,31.8430476 31.3676832,31.8430476 L5.93601653,31.8430476 C2.83526991,31.838916 0.322648106,29.3262942 0.318516526,26.2255476 Z M3.65184986,26.2255476 C3.65322769,27.4864868 4.67507726,28.5083364 5.93601653,28.5097142 L31.3676832,28.5097142 C32.1817074,28.5097142 32.9341575,28.0762836 33.3428252,27.3722763 C33.7514928,26.6682691 33.7546134,25.799974 33.3510165,25.0930476 L22.1918499,5.56408924 C21.4659815,4.29367321 20.1150114,3.50963007 18.6518499,3.50963007 C17.1886883,3.50963007 15.8377183,4.29367321 15.1118499,5.56408924 L3.95289153,25.0930476 C3.75579803,25.4379577 3.65184986,25.828296 3.65184986,26.2255476 Z M20.3185165,8.50971424 L16.9851832,8.50971424 L16.9851832,18.5097142 L20.3185165,18.5097142 L20.3185165,8.50971424 Z M20.3185165,21.8430476 L16.9851832,21.8430476 L16.9851832,25.1763809 L20.3185165,25.1763809 L20.3185165,21.8430476 Z M30.3185165,81.0097142 C30.3200092,79.6296211 31.4384234,78.5112069 32.8185165,78.5097142 L37.8185165,78.5097142 C39.1986096,78.5112069 40.3170238,79.6296211 40.3185165,81.0097142 L40.3185165,86.0097142 C40.3170238,87.3898074 39.1986096,88.5082216 37.8185165,88.5097142 L32.8185165,88.5097142 C31.4384234,88.5082216 30.3200092,87.3898074 30.3185165,86.0097142 L30.3185165,81.0097142 Z M33.6518499,85.1763809 L36.9851832,85.1763809 L36.9851832,81.8430476 L33.6518499,81.8430476 L33.6518499,85.1763809 Z M43.6518499,81.8430476 L60.3185165,81.8430476 L60.3185165,78.5097142 L43.6518499,78.5097142 L43.6518499,81.8430476 Z M43.6518499,88.5097142 L61.9851832,88.5097142 L61.9851832,85.1763809 L43.6518499,85.1763809 L43.6518499,88.5097142 Z M30.3185165,67.6763809 C30.3200092,66.2962878 31.4384234,65.1778736 32.8185165,65.1763809 L37.8185165,65.1763809 C39.1986096,65.1778736 40.3170238,66.2962878 40.3185165,67.6763809 L40.3185165,72.6763809 C40.3170238,74.056474 39.1986096,75.1748882 37.8185165,75.1763809 L32.8185165,75.1763809 C31.4384234,75.1748882 30.3200092,74.056474 30.3185165,72.6763809 L30.3185165,67.6763809 Z M33.6518499,71.8430476 L36.9851832,71.8430476 L36.9851832,68.5097142 L33.6518499,68.5097142 L33.6518499,71.8430476 Z M55.3185165,65.1763809 L43.6518499,65.1763809 L43.6518499,68.5097142 L55.3185165,68.5097142 L55.3185165,65.1763809 Z M43.6518499,75.1763809 L55.3185165,75.1763809 L55.3185165,71.8430476 L43.6518499,71.8430476 L43.6518499,75.1763809 Z M30.3185165,54.3430476 C30.3200092,52.9629545 31.4384234,51.8445402 32.8185165,51.8430476 L37.8185165,51.8430476 C39.1986096,51.8445402 40.3170238,52.9629545 40.3185165,54.3430476 L40.3185165,59.3430476 C40.3170238,60.7231407 39.1986096,61.8415549 37.8185165,61.8430476 L32.8185165,61.8430476 C31.4384234,61.8415549 30.3200092,60.7231407 30.3185165,59.3430476 L30.3185165,54.3430476 Z M33.6518499,58.5097142 L36.9851832,58.5097142 L36.9851832,55.1763809 L33.6518499,55.1763809 L33.6518499,58.5097142 Z M70.3185165,51.8430476 L43.6518499,51.8430476 L43.6518499,55.1763809 L70.3185165,55.1763809 L70.3185165,51.8430476 Z M70.3185165,58.5097142 L43.6518499,58.5097142 L43.6518499,61.8430476 L70.3185165,61.8430476 L70.3185165,58.5097142 Z M98.1637249,14.6882559 L95.8066415,12.3311726 L92.4733082,15.6645059 L94.8303915,18.0215892 L98.1637249,14.6882559 Z M92.3303915,20.5215892 L89.9733082,18.1645059 L82.4733082,25.6645059 L84.8303915,28.0215892 L92.3303915,20.5215892 Z M96.7768499,35.1763809 L96.7768499,38.5097142 L100.318517,38.5097142 L100.318517,35.1763809 L96.7768499,35.1763809 Z M83.6518499,35.1763809 L83.6518499,38.5097142 L93.0268499,38.5097142 L93.0268499,35.1763809 L83.6518499,35.1763809 Z M98.1637249,58.9978392 L94.8303915,55.6645059 L92.4733082,58.0215892 L95.8066415,61.3549226 L98.1637249,58.9978392 Z M91.9830999,52.8174226 L84.8303915,45.6645059 L82.4733082,48.0215892 L89.6260165,55.1742976 L91.9830999,52.8174226 Z M46.9851832,18.5097142 L38.6518499,18.5097142 L38.6518499,21.8430476 L46.9851832,21.8430476 L46.9851832,18.5097142 Z M58.6518499,18.5097142 L50.3185165,18.5097142 L50.3185165,21.8430476 L58.6518499,21.8430476 L58.6518499,18.5097142 Z M70.3185165,18.5097142 L61.9851832,18.5097142 L61.9851832,21.8430476 L70.3185165,21.8430476 L70.3185165,18.5097142 Z" id="Shape"></path>
        </g>
        <g id="Group-7" transform="translate(868.000000, 377.000000)">
            <g id="Group-3" transform="translate(0.000000, 4.000000)">
                <mask id="mask-3" fill="white">
                    <use xlink:href="#path-2"></use>
                </mask>
                <g id="Clip-2"></g>
                <path d="M2.01934028,16.577983 C1.81746528,16.3761481 1.68099306,16.1055113 1.64652083,15.8023981 L0.00861805556,1.46033208 C-0.0726041667,0.749459434 0.427243056,0.105945283 1.1251875,0.023190566 C1.82313194,-0.0593235849 2.45449306,0.450435849 2.53571528,1.16082736 L4.05579861,14.4727896 L17.3011597,15.9007896 C17.8843542,15.9635774 18.3494931,16.4245019 18.4278819,17.0162943 L20.2360208,30.6614406 L33.6620069,32.2347425 C34.2487431,32.3033038 34.7119931,32.7745726 34.7799931,33.3723792 L36.3024375,46.7033462 L49.8710347,48.4176198 C50.5685069,48.505667 51.0631597,49.1532708 50.9769792,49.8631811 C50.8903264,50.5735726 50.2551875,51.0780396 49.5579514,50.9899925 L34.9979236,49.150384 C34.4156736,49.0767708 33.9585625,48.6071858 33.8907986,48.01395 L32.3695347,34.6923651 L18.9626736,33.1214689 C18.3844375,33.0541104 17.9249653,32.5951104 17.8472847,32.0074075 L16.0403264,18.3714028 L2.77607639,16.9412377 C2.48235417,16.9097236 2.21885417,16.7771717 2.01934028,16.577983" id="Fill-1" fill="#026B74" mask="url(#mask-3)"></path>
            </g>
            <g id="Group-6" transform="translate(4.000000, 0.000000)">
                <mask id="mask-5" fill="white">
                    <use xlink:href="#path-4"></use>
                </mask>
                <g id="Clip-5"></g>
                <path d="M18.6088111,32.789193 C18.4089585,32.5935732 18.2728479,32.3330662 18.2333088,32.0404746 L16.3991705,18.4684887 L2.93764055,17.0452775 C2.33712442,16.9815873 1.8604977,16.5108549 1.79076498,15.9115451 L0.128442396,1.63729155 C0.0460092166,0.929277465 0.553308756,0.289023944 1.26141935,0.206657746 C1.96976959,0.124530986 2.61078341,0.631897183 2.69321659,1.33871408 L4.23596313,14.5884183 L17.6788018,16.0094746 C18.2706912,16.0724465 18.742765,16.5309676 18.8223226,17.1199817 L20.657659,30.7010662 L34.2833364,32.2669817 C34.8788203,32.3352211 35.3492166,32.804038 35.4182304,33.3992775 L36.9636129,46.6674183 L50.7342673,48.3738831 C51.4421382,48.4615169 51.9441659,49.1058408 51.8567005,49.8126577 C51.7689954,50.5197141 51.1239078,51.0218127 50.4165161,50.9341789 L35.6394101,49.103207 C35.0487189,49.0299394 34.5850323,48.5625592 34.5160184,47.9721085 L32.9718341,34.7130662 L19.3650876,33.1493056 C19.0717788,33.1157845 18.808424,32.9848127 18.6088111,32.789193" id="Fill-4" fill="#6BE4E4" mask="url(#mask-5)"></path>
            </g>
        </g>
        <g id="Group-7-Copy-2" opacity="0.738560268" transform="translate(676.000000, 85.000000)">
            <g id="Group-3" transform="translate(0.000000, 4.000000)">
                <mask id="mask-7" fill="white">
                    <use xlink:href="#path-6"></use>
                </mask>
                <g id="Clip-2"></g>
                <path d="M2.01934028,16.577983 C1.81746528,16.3761481 1.68099306,16.1055113 1.64652083,15.8023981 L0.00861805556,1.46033208 C-0.0726041667,0.749459434 0.427243056,0.105945283 1.1251875,0.023190566 C1.82313194,-0.0593235849 2.45449306,0.450435849 2.53571528,1.16082736 L4.05579861,14.4727896 L17.3011597,15.9007896 C17.8843542,15.9635774 18.3494931,16.4245019 18.4278819,17.0162943 L20.2360208,30.6614406 L33.6620069,32.2347425 C34.2487431,32.3033038 34.7119931,32.7745726 34.7799931,33.3723792 L36.3024375,46.7033462 L49.8710347,48.4176198 C50.5685069,48.505667 51.0631597,49.1532708 50.9769792,49.8631811 C50.8903264,50.5735726 50.2551875,51.0780396 49.5579514,50.9899925 L34.9979236,49.150384 C34.4156736,49.0767708 33.9585625,48.6071858 33.8907986,48.01395 L32.3695347,34.6923651 L18.9626736,33.1214689 C18.3844375,33.0541104 17.9249653,32.5951104 17.8472847,32.0074075 L16.0403264,18.3714028 L2.77607639,16.9412377 C2.48235417,16.9097236 2.21885417,16.7771717 2.01934028,16.577983" id="Fill-1" fill="#026B74" mask="url(#mask-7)"></path>
            </g>
            <g id="Group-6" transform="translate(4.000000, 0.000000)">
                <mask id="mask-9" fill="white">
                    <use xlink:href="#path-8"></use>
                </mask>
                <g id="Clip-5"></g>
                <path d="M18.6088111,32.789193 C18.4089585,32.5935732 18.2728479,32.3330662 18.2333088,32.0404746 L16.3991705,18.4684887 L2.93764055,17.0452775 C2.33712442,16.9815873 1.8604977,16.5108549 1.79076498,15.9115451 L0.128442396,1.63729155 C0.0460092166,0.929277465 0.553308756,0.289023944 1.26141935,0.206657746 C1.96976959,0.124530986 2.61078341,0.631897183 2.69321659,1.33871408 L4.23596313,14.5884183 L17.6788018,16.0094746 C18.2706912,16.0724465 18.742765,16.5309676 18.8223226,17.1199817 L20.657659,30.7010662 L34.2833364,32.2669817 C34.8788203,32.3352211 35.3492166,32.804038 35.4182304,33.3992775 L36.9636129,46.6674183 L50.7342673,48.3738831 C51.4421382,48.4615169 51.9441659,49.1058408 51.8567005,49.8126577 C51.7689954,50.5197141 51.1239078,51.0218127 50.4165161,50.9341789 L35.6394101,49.103207 C35.0487189,49.0299394 34.5850323,48.5625592 34.5160184,47.9721085 L32.9718341,34.7130662 L19.3650876,33.1493056 C19.0717788,33.1157845 18.808424,32.9848127 18.6088111,32.789193" id="Fill-4" fill="#6BE4E4" mask="url(#mask-9)"></path>
            </g>
        </g>
        <g id="Group-7-Copy" opacity="0.80796596" transform="translate(171.000000, 112.000000)">
            <g id="Group-3" transform="translate(0.000000, 4.000000)">
                <mask id="mask-11" fill="white">
                    <use xlink:href="#path-10"></use>
                </mask>
                <g id="Clip-2"></g>
                <path d="M2.01934028,16.577983 C1.81746528,16.3761481 1.68099306,16.1055113 1.64652083,15.8023981 L0.00861805556,1.46033208 C-0.0726041667,0.749459434 0.427243056,0.105945283 1.1251875,0.023190566 C1.82313194,-0.0593235849 2.45449306,0.450435849 2.53571528,1.16082736 L4.05579861,14.4727896 L17.3011597,15.9007896 C17.8843542,15.9635774 18.3494931,16.4245019 18.4278819,17.0162943 L20.2360208,30.6614406 L33.6620069,32.2347425 C34.2487431,32.3033038 34.7119931,32.7745726 34.7799931,33.3723792 L36.3024375,46.7033462 L49.8710347,48.4176198 C50.5685069,48.505667 51.0631597,49.1532708 50.9769792,49.8631811 C50.8903264,50.5735726 50.2551875,51.0780396 49.5579514,50.9899925 L34.9979236,49.150384 C34.4156736,49.0767708 33.9585625,48.6071858 33.8907986,48.01395 L32.3695347,34.6923651 L18.9626736,33.1214689 C18.3844375,33.0541104 17.9249653,32.5951104 17.8472847,32.0074075 L16.0403264,18.3714028 L2.77607639,16.9412377 C2.48235417,16.9097236 2.21885417,16.7771717 2.01934028,16.577983" id="Fill-1" fill="#026B74" mask="url(#mask-11)"></path>
            </g>
            <g id="Group-6" transform="translate(4.000000, 0.000000)">
                <mask id="mask-13" fill="white">
                    <use xlink:href="#path-12"></use>
                </mask>
                <g id="Clip-5"></g>
                <path d="M18.6088111,32.789193 C18.4089585,32.5935732 18.2728479,32.3330662 18.2333088,32.0404746 L16.3991705,18.4684887 L2.93764055,17.0452775 C2.33712442,16.9815873 1.8604977,16.5108549 1.79076498,15.9115451 L0.128442396,1.63729155 C0.0460092166,0.929277465 0.553308756,0.289023944 1.26141935,0.206657746 C1.96976959,0.124530986 2.61078341,0.631897183 2.69321659,1.33871408 L4.23596313,14.5884183 L17.6788018,16.0094746 C18.2706912,16.0724465 18.742765,16.5309676 18.8223226,17.1199817 L20.657659,30.7010662 L34.2833364,32.2669817 C34.8788203,32.3352211 35.3492166,32.804038 35.4182304,33.3992775 L36.9636129,46.6674183 L50.7342673,48.3738831 C51.4421382,48.4615169 51.9441659,49.1058408 51.8567005,49.8126577 C51.7689954,50.5197141 51.1239078,51.0218127 50.4165161,50.9341789 L35.6394101,49.103207 C35.0487189,49.0299394 34.5850323,48.5625592 34.5160184,47.9721085 L32.9718341,34.7130662 L19.3650876,33.1493056 C19.0717788,33.1157845 18.808424,32.9848127 18.6088111,32.789193" id="Fill-4" fill="#6BE4E4" mask="url(#mask-13)"></path>
            </g>
        </g>
        <g id="Group-3" opacity="0.590913318" transform="translate(273.000000, 29.000000)">
            <path d="M32.1327,-0.000171428571 L1.1817,27.7532571 L28.9351286,58.7034 L59.8861286,30.9504 L32.1327,-0.000171428571 Z M7.83912857,28.1158286 L31.7705571,6.65682857 L53.2287,30.5882571 L29.2981286,52.0464 L7.83912857,28.1158286 Z" id="Fill-1" fill="#026B74"></path>
            <path d="M0,38.3105143 L27.7534286,69.2610857 L58.7035714,41.5076571 L30.951,10.5570857 L0,38.3105143 Z M6.657,38.6726571 L30.588,17.2140857 L52.0465714,41.1450857 L28.116,62.6040857 L6.657,38.6726571 Z" id="Fill-2" fill="#6BE4E4"></path>
        </g>
        <g id="Group-3-Copy" opacity="0.590913318" transform="translate(763.000000, 112.000000) rotate(39.000000) translate(-763.000000, -112.000000) translate(742.000000, 88.000000)">
            <path d="M22.1524684,0.945546353 L1.0630884,19.8564425 L19.9737084,40.9455464 L41.0630884,22.0349422 L22.1524684,0.945546353 Z M5.59932441,20.1034949 L21.9057116,5.48155657 L36.5268524,21.7881819 L20.2210492,36.4095361 L5.59932441,20.1034949 Z" id="Fill-1" fill="#026B74"></path>
            <path d="M0.323960551,26.8886362 L19.2348567,47.9778781 L40.3239606,29.06712 L21.4136485,7.97787812 L0.323960551,26.8886362 Z M4.85997077,27.1353948 L21.166304,12.5138552 L35.7879503,28.8200694 L19.4819091,43.441901 L4.85997077,27.1353948 Z" id="Fill-2" fill="#6BE4E4"></path>
        </g>
        <g id="Group-3-Copy-2" transform="translate(721.000000, 374.000000) rotate(11.000000) translate(-721.000000, -374.000000) translate(700.000000, 350.000000)">
            <path d="M22.1524684,0.945546353 L1.0630884,19.8564425 L19.9737084,40.9455464 L41.0630884,22.0349422 L22.1524684,0.945546353 Z M5.59932441,20.1034949 L21.9057116,5.48155657 L36.5268524,21.7881819 L20.2210492,36.4095361 L5.59932441,20.1034949 Z" id="Fill-1" fill="#026B74"></path>
            <path d="M0.323960551,26.8886362 L19.2348567,47.9778781 L40.3239606,29.06712 L21.4136485,7.97787812 L0.323960551,26.8886362 Z M4.85997077,27.1353948 L21.166304,12.5138552 L35.7879503,28.8200694 L19.4819091,43.441901 L4.85997077,27.1353948 Z" id="Fill-2" fill="#6BE4E4"></path>
        </g>
    </g>
</svg>