<?xml version="1.0" encoding="utf-8"?>
<svg version="1.1" xmlns:xlink="http://www.w3.org/1999/xlink" width="10px" height="587px" preserveAspectRatio="xMidYMin meet" viewBox="154 3938  8 587" xmlns="http://www.w3.org/2000/svg">
  <path d="M 302.5 3962  L 302.5 3948  A 5 5 0 0 0 297.5 3943.5 L 163 3943.5  A 5 5 0 0 0 158.5 3948.5 L 158.5 4515  A 5 5 0 0 0 163.5 4520.5 L 297 4520.5  A 5 5 0 0 1 302.5 4525.5 L 302.5 4563  " stroke-width="1" stroke="#333333" fill="none" />
  <path d="M 307.302574338955 4556.8406274841  A 15.2397059063707 15.2397059063707 0 0 0 304.732549447418 4558.2521761212 A 5.67022816787241 5.67022816787241 0 0 0 302.5 4560.66716990518 A 5.67022816787241 5.67022816787241 0 0 0 300.267450552582 4558.2521761212 A 15.2397059063707 15.2397059063707 0 0 0 297.697425661045 4556.8406274841 L 297.302574338955 4557.7593725159  A 14.2397059063707 14.2397059063707 0 0 1 299.733010949523 4559.0981667083 A 4.67022816787241 4.67022816787241 0 0 1 302.006696597812 4562.38155828217 A 0.5 0.5 0 0 0 302.5 4562.8 A 0.5 0.5 0 0 0 302.993303402187 4562.38155828217 A 4.67022816787241 4.67022816787241 0 0 1 305.266989050477 4559.0981667083 A 14.2397059063707 14.2397059063707 0 0 1 307.697425661045 4557.7593725159 L 307.302574338955 4556.8406274841  Z " fill-rule="nonzero" fill="#333333" stroke="none" />
</svg>