<?xml version="1.0" encoding="utf-8"?>
<svg version="1.1" xmlns:xlink="http://www.w3.org/1999/xlink" width="10px" height="38px" preserveAspectRatio="xMidYMin meet" viewBox="591 4813  8 38" xmlns="http://www.w3.org/2000/svg">
  <path d="M 595.5 4851  L 595.5 4823  A 5 5 0 0 1 600.5 4818.5 L 747 4818.5  A 5 5 0 0 0 752.5 4813.5 L 752.5 4545  A 5 5 0 0 1 757.5 4540.5 L 910 4540.5  A 5 5 0 0 1 915.5 4545.5 L 915.5 4550  " stroke-width="1" stroke="#333333" fill="none" />
  <path d="M 920.302574338955 4543.8406274841  A 15.2397059063707 15.2397059063707 0 0 0 917.732549447418 4545.2521761212 A 5.67022816787241 5.67022816787241 0 0 0 915.5 4547.66716990518 A 5.67022816787241 5.67022816787241 0 0 0 913.267450552582 4545.2521761212 A 15.2397059063707 15.2397059063707 0 0 0 910.697425661045 4543.8406274841 L 910.302574338955 4544.7593725159  A 14.2397059063707 14.2397059063707 0 0 1 912.733010949523 4546.0981667083 A 4.67022816787241 4.67022816787241 0 0 1 915.006696597812 4549.38155828217 A 0.5 0.5 0 0 0 915.5 4549.8 A 0.5 0.5 0 0 0 915.993303402187 4549.38155828217 A 4.67022816787241 4.67022816787241 0 0 1 918.266989050478 4546.0981667083 A 14.2397059063707 14.2397059063707 0 0 1 920.697425661045 4544.7593725159 L 920.302574338955 4543.8406274841  Z " fill-rule="nonzero" fill="#333333" stroke="none" />
</svg>