<?xml version="1.0" encoding="utf-8"?>
<svg version="1.1" xmlns:xlink="http://www.w3.org/1999/xlink" width="10px" height="444px" preserveAspectRatio="xMidYMin meet" viewBox="1046 4521  8 444" xmlns="http://www.w3.org/2000/svg">
  <path d="M 899.5 4944  L 899.5 4955  A 5 5 0 0 0 904.5 4960.5 L 1045 4960.5  A 5 5 0 0 0 1050.5 4955.5 L 1050.5 4531  A 5 5 0 0 0 1045.5 4526.5 L 614 4526.5  A 5 5 0 0 0 609.5 4531.5 L 609.5 4550  " stroke-width="1" stroke="#333333" fill="none" />
  <path d="M 614.302574338955 4543.8406274841  A 15.2397059063707 15.2397059063707 0 0 0 611.732549447418 4545.2521761212 A 5.67022816787241 5.67022816787241 0 0 0 609.5 4547.66716990518 A 5.67022816787241 5.67022816787241 0 0 0 607.267450552582 4545.2521761212 A 15.2397059063707 15.2397059063707 0 0 0 604.697425661045 4543.8406274841 L 604.302574338955 4544.7593725159  A 14.2397059063707 14.2397059063707 0 0 1 606.733010949523 4546.0981667083 A 4.67022816787241 4.67022816787241 0 0 1 609.006696597812 4549.38155828217 A 0.5 0.5 0 0 0 609.5 4549.8 A 0.5 0.5 0 0 0 609.993303402187 4549.38155828217 A 4.67022816787241 4.67022816787241 0 0 1 612.266989050478 4546.0981667083 A 14.2397059063707 14.2397059063707 0 0 1 614.697425661045 4544.7593725159 L 614.302574338955 4543.8406274841  Z " fill-rule="nonzero" fill="#333333" stroke="none" />
</svg>