<?xml version="1.0" encoding="utf-8"?>
<svg version="1.1" xmlns:xlink="http://www.w3.org/1999/xlink" width="10px" height="670px" preserveAspectRatio="xMidYMin meet" viewBox="455 4595  8 670" xmlns="http://www.w3.org/2000/svg">
  <path d="M 510 4600.5  L 464 4600.5  A 5 5 0 0 0 459.5 4605.5 L 459.5 5255  A 5 5 0 0 1 454.5 5260.5 L 308 5260.5  A 5 5 0 0 0 303.5 5265.5 L 303.5 5331  " stroke-width="1" stroke="#333333" fill="none" />
  <path d="M 308.302574338955 5324.8406274841  A 15.2397059063707 15.2397059063707 0 0 0 305.732549447418 5326.2521761212 A 5.67022816787241 5.67022816787241 0 0 0 303.5 5328.66716990518 A 5.67022816787241 5.67022816787241 0 0 0 301.267450552582 5326.2521761212 A 15.2397059063707 15.2397059063707 0 0 0 298.697425661045 5324.8406274841 L 298.302574338955 5325.7593725159  A 14.2397059063707 14.2397059063707 0 0 1 300.733010949523 5327.0981667083 A 4.67022816787241 4.67022816787241 0 0 1 303.006696597812 5330.38155828217 A 0.5 0.5 0 0 0 303.5 5330.8 A 0.5 0.5 0 0 0 303.993303402187 5330.38155828217 A 4.67022816787241 4.67022816787241 0 0 1 306.266989050477 5327.0981667083 A 14.2397059063707 14.2397059063707 0 0 1 308.697425661045 5325.7593725159 L 308.302574338955 5324.8406274841  Z " fill-rule="nonzero" fill="#333333" stroke="none" />
</svg>