<?xml version="1.0" encoding="utf-8"?>
<svg version="1.1" xmlns:xlink="http://www.w3.org/1999/xlink" width="104px" height="10px" preserveAspectRatio="xMinYMid meet" viewBox="372 5742  104 8" xmlns="http://www.w3.org/2000/svg">
  <path d="M 372 5746.5  L 466 5746.5  A 5 5 0 0 0 471.5 5741.5 L 471.5 5010  A 5 5 0 0 1 476.5 5005.5 L 604 5005.5  A 5 5 0 0 0 609.5 5000.5 L 609.5 4995  " stroke-width="1" stroke="#333333" fill="none" />
  <path d="M 604.697425661045 5001.1593725159  A 15.2397059063707 15.2397059063707 0 0 0 607.267450552582 4999.7478238788 A 5.67022816787241 5.67022816787241 0 0 0 609.5 4997.33283009482 A 5.67022816787241 5.67022816787241 0 0 0 611.732549447418 4999.7478238788 A 15.2397059063707 15.2397059063707 0 0 0 614.302574338955 5001.1593725159 L 614.697425661045 5000.2406274841  A 14.2397059063707 14.2397059063707 0 0 1 612.266989050478 4998.9018332917 A 4.67022816787241 4.67022816787241 0 0 1 609.993303402187 4995.61844171783 A 0.5 0.5 0 0 0 609.5 4995.2 A 0.5 0.5 0 0 0 609.006696597813 4995.61844171783 A 4.67022816787241 4.67022816787241 0 0 1 606.733010949522 4998.9018332917 A 14.2397059063707 14.2397059063707 0 0 1 604.302574338955 5000.2406274841 L 604.697425661045 5001.1593725159  Z " fill-rule="nonzero" fill="#333333" stroke="none" />
</svg>