<?xml version="1.0" encoding="utf-8"?>
<svg version="1.1" xmlns:xlink="http://www.w3.org/1999/xlink" width="158px" height="10px" preserveAspectRatio="xMinYMid meet" viewBox="762 5232  158 8" xmlns="http://www.w3.org/2000/svg">
  <path d="M 811 4668.5  L 772 4668.5  A 5 5 0 0 0 767.5 4673.5 L 767.5 5231  A 5 5 0 0 0 772.5 5236.5 L 910 5236.5  A 5 5 0 0 1 915.5 5241.5 L 915.5 5331  " stroke-width="1" stroke="#333333" fill="none" />
  <path d="M 920.302574338955 5324.8406274841  A 15.2397059063707 15.2397059063707 0 0 0 917.732549447418 5326.2521761212 A 5.67022816787241 5.67022816787241 0 0 0 915.5 5328.66716990518 A 5.67022816787241 5.67022816787241 0 0 0 913.267450552582 5326.2521761212 A 15.2397059063707 15.2397059063707 0 0 0 910.697425661045 5324.8406274841 L 910.302574338955 5325.7593725159  A 14.2397059063707 14.2397059063707 0 0 1 912.733010949523 5327.0981667083 A 4.67022816787241 4.67022816787241 0 0 1 915.006696597812 5330.38155828217 A 0.5 0.5 0 0 0 915.5 5330.8 A 0.5 0.5 0 0 0 915.993303402187 5330.38155828217 A 4.67022816787241 4.67022816787241 0 0 1 918.266989050478 5327.0981667083 A 14.2397059063707 14.2397059063707 0 0 1 920.697425661045 5325.7593725159 L 920.302574338955 5324.8406274841  Z " fill-rule="nonzero" fill="#333333" stroke="none" />
</svg>