<?xml version="1.0" encoding="utf-8"?>
<svg version="1.1" xmlns:xlink="http://www.w3.org/1999/xlink" width="757px" height="10px" preserveAspectRatio="xMinYMid meet" viewBox="298 5919  757 8" xmlns="http://www.w3.org/2000/svg">
  <path d="M 1003 5748.5  L 1045 5748.5  A 5 5 0 0 1 1050.5 5753.5 L 1050.5 5918  A 5 5 0 0 1 1045.5 5923.5 L 308 5923.5  A 5 5 0 0 0 303.5 5928.5 L 303.5 5992  " stroke-width="1" stroke="#333333" fill="none" />
  <path d="M 308.302574338955 5985.8406274841  A 15.2397059063707 15.2397059063707 0 0 0 305.732549447418 5987.2521761212 A 5.67022816787241 5.67022816787241 0 0 0 303.5 5989.66716990518 A 5.67022816787241 5.67022816787241 0 0 0 301.267450552582 5987.2521761212 A 15.2397059063707 15.2397059063707 0 0 0 298.697425661045 5985.8406274841 L 298.302574338955 5986.7593725159  A 14.2397059063707 14.2397059063707 0 0 1 300.733010949523 5988.0981667083 A 4.67022816787241 4.67022816787241 0 0 1 303.006696597812 5991.38155828217 A 0.5 0.5 0 0 0 303.5 5991.8 A 0.5 0.5 0 0 0 303.993303402187 5991.38155828217 A 4.67022816787241 4.67022816787241 0 0 1 306.266989050477 5988.0981667083 A 14.2397059063707 14.2397059063707 0 0 1 308.697425661045 5986.7593725159 L 308.302574338955 5985.8406274841  Z " fill-rule="nonzero" fill="#333333" stroke="none" />
</svg>