<?xml version="1.0" encoding="utf-8"?>
<svg version="1.1" xmlns:xlink="http://www.w3.org/1999/xlink" width="10px" height="439px" preserveAspectRatio="xMidYMin meet" viewBox="453 5975  8 439" xmlns="http://www.w3.org/2000/svg">
  <path d="M 393 6409.5  L 452 6409.5  A 5 5 0 0 0 457.5 6404.5 L 457.5 5985  A 5 5 0 0 1 462.5 5980.5 L 604 5980.5  A 5 5 0 0 1 609.5 5985.5 L 609.5 5992  " stroke-width="1" stroke="#333333" fill="none" />
  <path d="M 614.302574338955 5985.8406274841  A 15.2397059063707 15.2397059063707 0 0 0 611.732549447418 5987.2521761212 A 5.67022816787241 5.67022816787241 0 0 0 609.5 5989.66716990518 A 5.67022816787241 5.67022816787241 0 0 0 607.267450552582 5987.2521761212 A 15.2397059063707 15.2397059063707 0 0 0 604.697425661045 5985.8406274841 L 604.302574338955 5986.7593725159  A 14.2397059063707 14.2397059063707 0 0 1 606.733010949523 5988.0981667083 A 4.67022816787241 4.67022816787241 0 0 1 609.006696597812 5991.38155828217 A 0.5 0.5 0 0 0 609.5 5991.8 A 0.5 0.5 0 0 0 609.993303402187 5991.38155828217 A 4.67022816787241 4.67022816787241 0 0 1 612.266989050478 5988.0981667083 A 14.2397059063707 14.2397059063707 0 0 1 614.697425661045 5986.7593725159 L 614.302574338955 5985.8406274841  Z " fill-rule="nonzero" fill="#333333" stroke="none" />
</svg>