<?xml version="1.0" encoding="utf-8"?>
<svg version="1.1" xmlns:xlink="http://www.w3.org/1999/xlink" width="73px" height="10px" preserveAspectRatio="xMinYMid meet" viewBox="982 6301  73 8" xmlns="http://www.w3.org/2000/svg">
  <path d="M 982 6305.5  L 1045 6305.5  A 5 5 0 0 1 1050.5 6310.5 L 1050.5 6767  A 5 5 0 0 1 1045.5 6772.5 L 911 6772.5  A 5 5 0 0 0 906.5 6777.5 L 906.5 6911  A 5 5 0 0 1 901.5 6916.5 L 734 6916.5  " stroke-width="1" stroke="#333333" fill="none" />
  <path d="M 740.159372515896 6921.30257433895  A 15.2397059063707 15.2397059063707 0 0 0 738.747823878809 6918.73254944743 A 5.67022816787241 5.67022816787241 0 0 0 736.332830094823 6916.5 A 5.67022816787241 5.67022816787241 0 0 0 738.747823878809 6914.26745055257 A 15.2397059063707 15.2397059063707 0 0 0 740.159372515896 6911.69742566105 L 739.240627484104 6911.30257433895  A 14.2397059063707 14.2397059063707 0 0 1 737.901833291709 6913.73301094951 A 4.67022816787241 4.67022816787241 0 0 1 734.618441717832 6916.00669659781 A 0.5 0.5 0 0 0 734.2 6916.5 A 0.5 0.5 0 0 0 734.618441717832 6916.99330340219 A 4.67022816787241 4.67022816787241 0 0 1 737.901833291709 6919.26698905049 A 14.2397059063707 14.2397059063707 0 0 1 739.240627484104 6921.69742566105 L 740.159372515896 6921.30257433895  Z " fill-rule="nonzero" fill="#333333" stroke="none" />
</svg>