<?xml version="1.0" encoding="utf-8"?>
<svg version="1.1" xmlns:xlink="http://www.w3.org/1999/xlink" width="77px" height="10px" preserveAspectRatio="xMinYMid meet" viewBox="388 7473  77 8" xmlns="http://www.w3.org/2000/svg">
  <path d="M 388 7477.5  L 455 7477.5  A 5 5 0 0 0 460.5 7472.5 L 460.5 7345  A 5 5 0 0 1 465.5 7340.5 L 604 7340.5  A 5 5 0 0 1 609.5 7345.5 L 609.5 7354  " stroke-width="1" stroke="#333333" fill="none" />
  <path d="M 614.302574338955 7347.8406274841  A 15.2397059063707 15.2397059063707 0 0 0 611.732549447418 7349.2521761212 A 5.67022816787241 5.67022816787241 0 0 0 609.5 7351.66716990518 A 5.67022816787241 5.67022816787241 0 0 0 607.267450552582 7349.2521761212 A 15.2397059063707 15.2397059063707 0 0 0 604.697425661045 7347.8406274841 L 604.302574338955 7348.7593725159  A 14.2397059063707 14.2397059063707 0 0 1 606.733010949523 7350.0981667083 A 4.67022816787241 4.67022816787241 0 0 1 609.006696597812 7353.38155828217 A 0.5 0.5 0 0 0 609.5 7353.8 A 0.5 0.5 0 0 0 609.993303402187 7353.38155828217 A 4.67022816787241 4.67022816787241 0 0 1 612.266989050478 7350.0981667083 A 14.2397059063707 14.2397059063707 0 0 1 614.697425661045 7348.7593725159 L 614.302574338955 7347.8406274841  Z " fill-rule="nonzero" fill="#333333" stroke="none" />
</svg>