<?xml version="1.0" encoding="utf-8"?>
<svg version="1.1" xmlns:xlink="http://www.w3.org/1999/xlink" width="10px" height="15px" preserveAspectRatio="xMidYMin meet" viewBox="299 7339  8 15" xmlns="http://www.w3.org/2000/svg">
  <path d="M 196 6802.5  L 155 6802.5  A 5 5 0 0 0 150.5 6807.5 L 150.5 7339  A 5 5 0 0 0 155.5 7344.5 L 298 7344.5  A 5 5 0 0 1 303.5 7349.5 L 303.5 7354  " stroke-width="1" stroke="#333333" fill="none" />
  <path d="M 308.302574338955 7347.8406274841  A 15.2397059063707 15.2397059063707 0 0 0 305.732549447418 7349.2521761212 A 5.67022816787241 5.67022816787241 0 0 0 303.5 7351.66716990518 A 5.67022816787241 5.67022816787241 0 0 0 301.267450552582 7349.2521761212 A 15.2397059063707 15.2397059063707 0 0 0 298.697425661045 7347.8406274841 L 298.302574338955 7348.7593725159  A 14.2397059063707 14.2397059063707 0 0 1 300.733010949523 7350.0981667083 A 4.67022816787241 4.67022816787241 0 0 1 303.006696597812 7353.38155828217 A 0.5 0.5 0 0 0 303.5 7353.8 A 0.5 0.5 0 0 0 303.993303402187 7353.38155828217 A 4.67022816787241 4.67022816787241 0 0 1 306.266989050477 7350.0981667083 A 14.2397059063707 14.2397059063707 0 0 1 308.697425661045 7348.7593725159 L 308.302574338955 7347.8406274841  Z " fill-rule="nonzero" fill="#333333" stroke="none" />
</svg>