<?xml version="1.0" encoding="utf-8"?>
<svg version="1.1" xmlns:xlink="http://www.w3.org/1999/xlink" width="30px" height="24px" xmlns="http://www.w3.org/2000/svg">
  <g transform="matrix(1 0 0 1 -7 -10 )">
    <path d="M 8.10267857142867 17.4835227272727  C 8.41517857142867 17.79375  8.57142857142867 18.1704545454545  8.57142857142867 18.6136363636364  L 8.57142857142867 21.8045454545454  C 8.57142857142867 22.2477272727273  8.41517857142867 22.6244318181818  8.10267857142867 22.9346590909091  C 7.79017857142867 23.2448863636363  7.41071428571422 23.4  6.96428571428578 23.4  L 1.60714285714289 23.4  C 1.16071428571422 23.4  0.78125 23.2448863636363  0.46875 22.9346590909091  C 0.15625 22.6244318181818  0 22.2477272727273  0 21.8045454545454  L 0 18.6136363636364  C 0 18.1704545454545  0.15625 17.79375  0.46875 17.4835227272727  C 0.78125 17.1732954545454  1.16071428571422 17.0181818181818  1.60714285714289 17.0181818181818  L 6.96428571428578 17.0181818181818  C 7.41071428571422 17.0181818181818  7.79017857142867 17.1732954545454  8.10267857142867 17.4835227272727  Z M 8.10267857142867 8.97443181818181  C 8.41517857142867 9.28465909090909  8.57142857142867 9.6613636363636  8.57142857142867 10.1045454545454  L 8.57142857142867 13.2954545454545  C 8.57142857142867 13.7386363636364  8.41517857142867 14.1153409090909  8.10267857142867 14.4255681818182  C 7.79017857142867 14.7357954545454  7.41071428571422 14.8909090909091  6.96428571428578 14.8909090909091  L 1.60714285714289 14.8909090909091  C 1.16071428571422 14.8909090909091  0.78125 14.7357954545454  0.46875 14.4255681818182  C 0.15625 14.1153409090909  0 13.7386363636364  0 13.2954545454545  L 0 10.1045454545454  C 0 9.6613636363636  0.15625 9.28465909090909  0.46875 8.97443181818181  C 0.78125 8.66420454545454  1.16071428571422 8.5090909090909  1.60714285714289 8.5090909090909  L 6.96428571428578 8.5090909090909  C 7.41071428571422 8.5090909090909  7.79017857142867 8.66420454545454  8.10267857142867 8.97443181818181  Z M 18.8169642857142 17.4835227272727  C 19.1294642857142 17.79375  19.2857142857142 18.1704545454545  19.2857142857142 18.6136363636364  L 19.2857142857142 21.8045454545454  C 19.2857142857142 22.2477272727273  19.1294642857142 22.6244318181818  18.8169642857142 22.9346590909091  C 18.5044642857142 23.2448863636363  18.125 23.4  17.6785714285713 23.4  L 12.3214285714287 23.4  C 11.875 23.4  11.4955357142858 23.2448863636363  11.1830357142858 22.9346590909091  C 10.8705357142858 22.6244318181818  10.7142857142858 22.2477272727273  10.7142857142858 21.8045454545454  L 10.7142857142858 18.6136363636364  C 10.7142857142858 18.1704545454545  10.8705357142858 17.79375  11.1830357142858 17.4835227272727  C 11.4955357142858 17.1732954545454  11.875 17.0181818181818  12.3214285714287 17.0181818181818  L 17.6785714285713 17.0181818181818  C 18.125 17.0181818181818  18.5044642857142 17.1732954545454  18.8169642857142 17.4835227272727  Z M 8.10267857142867 0.465340909090912  C 8.41517857142867 0.775568181818187  8.57142857142867 1.1522727272727  8.57142857142867 1.59545454545457  L 8.57142857142867 4.78636363636366  C 8.57142857142867 5.22954545454547  8.41517857142867 5.60624999999999  8.10267857142867 5.91647727272726  C 7.79017857142867 6.22670454545454  7.41071428571422 6.38181818181818  6.96428571428578 6.38181818181818  L 1.60714285714289 6.38181818181818  C 1.16071428571422 6.38181818181818  0.78125 6.22670454545454  0.46875 5.91647727272726  C 0.15625 5.60624999999999  0 5.22954545454547  0 4.78636363636366  L 0 1.59545454545457  C 0 1.1522727272727  0.15625 0.775568181818187  0.46875 0.465340909090912  C 0.78125 0.155113636363637  1.16071428571422 0  1.60714285714289 0  L 6.96428571428578 0  C 7.41071428571422 0  7.79017857142867 0.155113636363637  8.10267857142867 0.465340909090912  Z M 18.8169642857142 8.97443181818181  C 19.1294642857142 9.28465909090909  19.2857142857142 9.6613636363636  19.2857142857142 10.1045454545454  L 19.2857142857142 13.2954545454545  C 19.2857142857142 13.7386363636364  19.1294642857142 14.1153409090909  18.8169642857142 14.4255681818182  C 18.5044642857142 14.7357954545454  18.125 14.8909090909091  17.6785714285713 14.8909090909091  L 12.3214285714287 14.8909090909091  C 11.875 14.8909090909091  11.4955357142858 14.7357954545454  11.1830357142858 14.4255681818182  C 10.8705357142858 14.1153409090909  10.7142857142858 13.7386363636364  10.7142857142858 13.2954545454545  L 10.7142857142858 10.1045454545454  C 10.7142857142858 9.6613636363636  10.8705357142858 9.28465909090909  11.1830357142858 8.97443181818181  C 11.4955357142858 8.66420454545454  11.875 8.5090909090909  12.3214285714287 8.5090909090909  L 17.6785714285713 8.5090909090909  C 18.125 8.5090909090909  18.5044642857142 8.66420454545454  18.8169642857142 8.97443181818181  Z M 29.53125 17.4835227272727  C 29.84375 17.79375  30 18.1704545454545  30 18.6136363636364  L 30 21.8045454545454  C 30 22.2477272727273  29.84375 22.6244318181818  29.53125 22.9346590909091  C 29.21875 23.2448863636363  28.8392857142858 23.4  28.3928571428571 23.4  L 23.0357142857142 23.4  C 22.5892857142858 23.4  22.2098214285713 23.2448863636363  21.8973214285713 22.9346590909091  C 21.5848214285713 22.6244318181818  21.4285714285713 22.2477272727273  21.4285714285713 21.8045454545454  L 21.4285714285713 18.6136363636364  C 21.4285714285713 18.1704545454545  21.5848214285713 17.79375  21.8973214285713 17.4835227272727  C 22.2098214285713 17.1732954545454  22.5892857142858 17.0181818181818  23.0357142857142 17.0181818181818  L 28.3928571428571 17.0181818181818  C 28.8392857142858 17.0181818181818  29.21875 17.1732954545454  29.53125 17.4835227272727  Z M 18.8169642857142 0.465340909090912  C 19.1294642857142 0.775568181818187  19.2857142857142 1.1522727272727  19.2857142857142 1.59545454545457  L 19.2857142857142 4.78636363636366  C 19.2857142857142 5.22954545454547  19.1294642857142 5.60624999999999  18.8169642857142 5.91647727272726  C 18.5044642857142 6.22670454545454  18.125 6.38181818181818  17.6785714285713 6.38181818181818  L 12.3214285714287 6.38181818181818  C 11.875 6.38181818181818  11.4955357142858 6.22670454545454  11.1830357142858 5.91647727272726  C 10.8705357142858 5.60624999999999  10.7142857142858 5.22954545454547  10.7142857142858 4.78636363636366  L 10.7142857142858 1.59545454545457  C 10.7142857142858 1.1522727272727  10.8705357142858 0.775568181818187  11.1830357142858 0.465340909090912  C 11.4955357142858 0.155113636363637  11.875 0  12.3214285714287 0  L 17.6785714285713 0  C 18.125 0  18.5044642857142 0.155113636363637  18.8169642857142 0.465340909090912  Z M 29.53125 8.97443181818181  C 29.84375 9.28465909090909  30 9.6613636363636  30 10.1045454545454  L 30 13.2954545454545  C 30 13.7386363636364  29.84375 14.1153409090909  29.53125 14.4255681818182  C 29.21875 14.7357954545454  28.8392857142858 14.8909090909091  28.3928571428571 14.8909090909091  L 23.0357142857142 14.8909090909091  C 22.5892857142858 14.8909090909091  22.2098214285713 14.7357954545454  21.8973214285713 14.4255681818182  C 21.5848214285713 14.1153409090909  21.4285714285713 13.7386363636364  21.4285714285713 13.2954545454545  L 21.4285714285713 10.1045454545454  C 21.4285714285713 9.6613636363636  21.5848214285713 9.28465909090909  21.8973214285713 8.97443181818181  C 22.2098214285713 8.66420454545454  22.5892857142858 8.5090909090909  23.0357142857142 8.5090909090909  L 28.3928571428571 8.5090909090909  C 28.8392857142858 8.5090909090909  29.21875 8.66420454545454  29.53125 8.97443181818181  Z M 29.53125 0.465340909090912  C 29.84375 0.775568181818187  30 1.1522727272727  30 1.59545454545457  L 30 4.78636363636366  C 30 5.22954545454547  29.84375 5.60624999999999  29.53125 5.91647727272726  C 29.21875 6.22670454545454  28.8392857142858 6.38181818181818  28.3928571428571 6.38181818181818  L 23.0357142857142 6.38181818181818  C 22.5892857142858 6.38181818181818  22.2098214285713 6.22670454545454  21.8973214285713 5.91647727272726  C 21.5848214285713 5.60624999999999  21.4285714285713 5.22954545454547  21.4285714285713 4.78636363636366  L 21.4285714285713 1.59545454545457  C 21.4285714285713 1.1522727272727  21.5848214285713 0.775568181818187  21.8973214285713 0.465340909090912  C 22.2098214285713 0.155113636363637  22.5892857142858 0  23.0357142857142 0  L 28.3928571428571 0  C 28.8392857142858 0  29.21875 0.155113636363637  29.53125 0.465340909090912  Z " fill-rule="nonzero" fill="#ffffff" stroke="none" transform="matrix(1 0 0 1 7 10 )" />
  </g>
</svg>