<?xml version="1.0" encoding="utf-8"?>
<svg version="1.1" xmlns:xlink="http://www.w3.org/1999/xlink" width="30px" height="13px" xmlns="http://www.w3.org/2000/svg">
  <g transform="matrix(1 0 0 1 -7 -60 )">
    <path d="M 29.84375 4.47984395318596  C 29.9479166666667 4.58127438231469  30 4.71087993064586  30 4.86866059817945  L 30 8.1144343302991  C 30 8.27221499783269  29.9479166666667 8.40182054616386  29.84375 8.50325097529259  C 29.7395833333333 8.60468140442131  29.6064814814815 8.65539661898569  29.4444444444443 8.65539661898569  L 7.77777777777783 8.65539661898569  L 7.77777777777783 12.4421326397919  C 7.77777777777783 12.6788036410923  7.66782407407413 12.8422193324664  7.44791666666674 12.9323797139142  C 7.22800925925935 13.0225400953619  7.02546296296305 12.9943649761595  6.84027777777783 12.8478543563069  L 0.173611111111086 6.93107932379715  C 0.0578703703704377 6.81837884698743  0 6.68877329865626  0 6.54226267880364  C 0 6.38448201127005  0.0578703703704377 6.2492414390984  0.173611111111086 6.13654096228868  L 6.84027777777783 0.152145643693103  C 7.02546296296305 -0.0056350238404832  7.22800925925935 -0.0394451668834108  7.44791666666674 0.0507152145643772  C 7.66782407407413 0.152145643693103  7.77777777777783 0.315561335067173  7.77777777777783 0.540962288686615  L 7.77777777777783 4.32769830949286  L 29.4444444444443 4.32769830949286  C 29.6064814814815 4.32769830949286  29.7395833333333 4.37841352405721  29.84375 4.47984395318596  Z " fill-rule="nonzero" fill="#ffffff" stroke="none" transform="matrix(1 0 0 1 7 60 )" />
  </g>
</svg>