<?xml version="1.0" encoding="utf-8"?>
<svg version="1.1" xmlns:xlink="http://www.w3.org/1999/xlink" width="30px" height="14px" xmlns="http://www.w3.org/2000/svg">
  <g transform="matrix(1 0 0 1 -7 -103 )">
    <path d="M 29.8263888888889 6.16228868660596  C 29.9421296296296 6.27672301690507  30 6.40832249674901  30 6.55708712613784  C 30 6.71729518855653  29.9421296296296 6.85461638491546  29.8263888888889 6.96905071521456  L 23.1597222222222 13.0455136540962  C 22.974537037037 13.2057217165149  22.7719907407406 13.2400520156046  22.5520833333333 13.1485045513654  C 22.3321759259259 13.0455136540962  22.2222222222222 12.8795838751626  22.2222222222222 12.6507152145643  L 22.2222222222222 8.80572171651494  L 0.555555555555657 8.80572171651494  C 0.393518518518476 8.80572171651494  0.260416666666742 8.75422626788037  0.15625 8.65123537061118  C 0.0520833333332575 8.54824447334198  0 8.41664499349804  0 8.25643693107929  L 0 4.96072821846553  C 0 4.80052015604679  0.0520833333332575 4.66892067620284  0.15625 4.56592977893365  C 0.260416666666742 4.46293888166451  0.393518518518476 4.41144343302989  0.555555555555657 4.41144343302989  L 22.2222222222222 4.41144343302989  L 22.2222222222222 0.566449934980483  C 22.2222222222222 0.32613784135242  22.3321759259259 0.160208062418747  22.5520833333333 0.0686605981794628  C 22.7719907407406 -0.0228868660598209  22.974537037037 0.00572171651492681  23.1597222222222 0.154486345903763  L 29.8263888888889 6.16228868660596  Z " fill-rule="nonzero" fill="#ffffff" stroke="none" transform="matrix(1 0 0 1 7 103 )" />
  </g>
</svg>