<svg height="497pt" viewBox="0 0 497 497.064" width="497pt" xmlns="http://www.w3.org/2000/svg"><path d="m463.222656 328.257812-11.3125-11.3125c18.136719-18.128906 28.121094-42.242187 28.121094-67.882812 0-25.636719-9.984375-49.75-28.121094-67.878906l11.3125-11.3125c21.160156 21.152344 32.808594 49.273437 32.808594 79.191406 0 29.921875-11.648438 58.042969-32.808594 79.195312zm0 0"/><path d="m440.601562 305.632812-11.3125-11.3125c12.085938-12.089843 18.742188-28.160156 18.742188-45.257812 0-17.09375-6.65625-33.167969-18.742188-45.253906l11.3125-11.3125c15.101563 15.105468 23.429688 35.199218 23.429688 56.566406 0 21.371094-8.328125 41.464844-23.429688 56.570312zm0 0"/><path d="m417.976562 283.007812-11.3125-11.3125c6.039063-6.046874 9.367188-14.085937 9.367188-22.632812 0-8.542969-3.328125-16.582031-9.367188-22.628906l11.3125-11.3125c9.0625 9.070312 14.054688 21.117187 14.054688 33.941406s-4.992188 24.875-14.054688 33.945312zm0 0"/><path d="m116.527344 250.433594c8.160156 12.039062 14.609375 25.175781 19.015625 38.460937l8.210937 33.441407 7.039063-1.007813c-.28125-2.433594-.488281-4.863281-.871094-7.28125 0 0 1.46875-1.222656 2.980469-2.429687 1.304687-1.042969 2.851562-2.265626 2.851562-2.265626 18.101563-18.113281 28.277344-42.679687 28.277344-68.289062h-8c-13.253906 0-24-10.742188-24-24 0-13.253906 10.746094-24 24-24h8v-10.382812c0-13.992188 4.761719-27.566407 13.503906-38.488282 11.6875-14.617187 29.394532-23.121094 48.113282-23.121094h49.414062c10.867188 0 21.289062 4.320313 28.96875 12 3.273438 3.273438 5.785156 7.105469 7.761719 11.1875l1.511719-1.144531 7.351562-7.351562c17.398438-17.402344 27.375-41.515625 27.375-66.136719 0-20.152344-6.648438-40.097656-18.710938-56.152344l-10.074218-13.472656-5.15625 1.304688c-41.746094 10.457031-85.128906 15.757812-128.9375 15.757812h-4.398438c-70.976562 0-128.722656 57.746094-128.722656 128.722656 0 21.894532 5.609375 43.519532 16.5625 63.101563zm0 0" fill="#f0bc5e"/><path d="m359.023438 375.59375-102.992188-28.609375v-24.769531l21.703125 6.511718 11.464844.335938c25.824219 0 46.832031-21.007812 46.832031-46.832031 0-4.765625 1.128906-9.527344 3.257812-13.789063l9.695313-19.402344c10.589844-.496093 19.046875-9.269531 19.046875-19.976562 0-4.292969-1.414062-8.550781-4-12l-2.984375-3.972656c-10.976563-14.632813-17.015625-32.761719-17.015625-51.058594 0-13.078125-5.09375-25.375-14.34375-34.625-9.246094-9.246094-21.542969-14.34375-34.625-14.34375h-49.414062c-21.265626 0-41.074219 9.523438-54.359376 26.128906-9.839843 12.296875-15.257812 27.738282-15.257812 43.488282v2.382812c-17.648438 0-32 14.351562-32 32 0 17.53125 14.167969 31.808594 31.648438 32-1.824219 20.496094-10.632813 39.53125-25.273438 54.3125l-2.484375 1.976562c-1.585937 1.265626-3.128906 2.542969-3.128906 2.542969l-3.480469 2.914063.703125 4.480468c1.335937 8.453126 2.015625 16.957032 2.015625 25.296876v6.398437l-102.992188 28.609375c-24.144531 6.710938-41.007812 28.894531-41.007812 53.957031v67.511719h400v-67.511719c0-25.0625-16.863281-47.246093-41.007812-53.957031zm-109.609376-13.839844 5.792969 1.605469-11.847656 47.402344-29.984375-24.984375zm-88.015624-46.746094c19.753906-19.75 30.632812-46.015624 30.632812-73.945312v-8h-16c-8.824219 0-16-7.175781-16-16s7.175781-16 16-16h16v-18.382812c0-12.128907 4.167969-24.023438 11.746094-33.496094 10.238281-12.785156 25.496094-20.121094 41.871094-20.121094h49.414062c8.808594 0 17.089844 3.433594 23.3125 9.65625 6.226562 6.226562 9.65625 14.511719 9.65625 23.3125 0 21.738281 7.175781 43.273438 20.214844 60.65625l2.976562 3.96875c.53125.703125.808594 1.535156.808594 2.40625 0 2.210938-1.792969 4-4 4h-8.941406l-14.105469 28.21875c-3.242187 6.460938-4.953125 13.710938-4.953125 20.949219 0 17-13.832031 30.832031-30.832031 30.832031h-7.992188l-78.878906-23.664062-4.59375 15.328124 42.296875 12.6875v31.371094l-40 26.664063-40-26.664063v-8.199218c0-7.65625-.519531-15.433594-1.542969-23.195313zm25.28125 70.769532-29.984376 24.984375-11.847656-47.402344 5.792969-1.605469zm197.351562 95.285156h-368v-51.511719c0-17.894531 12.046875-33.75 29.296875-38.542969l84.105469-23.359374 17.933594 71.71875 52.664062-43.886719 52.664062 43.894531 17.9375-71.71875 84.101563 23.359375c17.25 4.785156 29.296875 20.632813 29.296875 38.535156zm0 0"/></svg>