<svg id="_x33_0" enable-background="new 0 0 64 64" height="512" viewBox="0 0 64 64" width="512" xmlns="http://www.w3.org/2000/svg"><g><g><g><path d="m56 51c-3.859 0-7-3.141-7-7s3.141-7 7-7 7 3.141 7 7-3.141 7-7 7z" fill="#f0bc5e"/></g></g><g><g><path d="m8 51c-3.859 0-7-3.141-7-7s3.141-7 7-7 7 3.141 7 7-3.141 7-7 7z" fill="#f0bc5e"/></g></g><g><path d="m46.823 23.889c-1.046-6.36-6.781-10.889-13.226-10.889h-3.194c-6.445 0-12.181 4.529-13.226 10.889-.35 2.131-.177 4.268.492 6.282l.55 1.648-.031.168c.416-1.156 1.512-1.987 2.812-1.987h1v-.172c0-1.811.719-3.548 2-4.828 0 1.169.71 3 3 3s3.839-.919 3.839-.919c.863.863 1.775.919 1.775.919h7.336c1.113 0 2.023-.888 2.05-2v4h1c1.3 0 2.396.831 2.812 1.987l-.031-.168.55-1.648c.669-2.014.842-4.151.492-6.282z" fill="#f0bc5e"/></g><g><path d="m31 31h-2c0 .552-.448 1-1 1s-1-.448-1-1h-2c0 1.654 1.346 3 3 3s3-1.346 3-3z"/><path d="m36 32c-.552 0-1-.448-1-1h-2c0 1.654 1.346 3 3 3s3-1.346 3-3h-2c0 .552-.448 1-1 1z"/><path d="m35 37.838c-.432 1.293-1.637 2.162-3 2.162s-2.568-.869-3-2.164l-.052-.154-1.896.637.052.152c.703 2.111 2.67 3.529 4.896 3.529s4.193-1.418 4.896-3.527l.052-.154-1.896-.637z"/><path d="m53.73 9.905 2.635-5.562-5.235 3.272c-5.437-4.268-12.197-6.615-19.13-6.615-17.094 0-31 13.906-31 31v3h16.556c.694 1.19 1.97 2 3.444 2h.191c.609 3.299 2.688 6.088 5.538 7.651l-.491 1.471-6.57 1.195c-2.711.493-5.175 1.93-6.939 4.046-1.76 2.112-2.729 4.788-2.729 7.537v4.1h44v-4.1c0-2.749-.969-5.426-2.729-7.537-1.765-2.116-4.229-3.553-6.939-4.046l-6.57-1.195-.491-1.471c2.85-1.563 4.929-4.352 5.538-7.651h.191c1.474 0 2.75-.81 3.444-2h16.556v-3c0-8.286-3.375-16.292-9.27-22.095zm-50.73 22.095c0-15.99 13.01-29 29-29 6.24 0 12.319 2.05 17.301 5.758l-1.823 1.139c-4.551-3.195-9.882-4.897-15.478-4.897-14.888 0-27 12.112-27 27v1h-2zm16 1c0-1.103.897-2 2-2v4c-1.103 0-2-.897-2-2zm7.73 15.065 3.341 2.673-4.454 1.909-1.32-4.14zm3.991 8.935h2.559l1.334 4h-5.226zm2.681-2h-2.805l-1.009-1.879 2.412-1.033 2.412 1.034zm-21.402 3.9c0-2.282.805-4.504 2.266-6.256 1.464-1.758 3.51-2.95 5.76-3.36l2.288-.416 2.068 6.484 3.361-1.44 1.172 2.181-1.635 4.907h-7.28v-4h-2v4h-6zm37.734-6.255c1.461 1.751 2.266 3.973 2.266 6.255v2.1h-6v-4h-2v4h-7.28l-1.635-4.907 1.172-2.181 3.361 1.44 2.068-6.484 2.288.416c2.251.41 4.297 1.603 5.76 3.361zm-10.033-4.138-1.32 4.14-4.454-1.909 3.341-2.673zm-3.87-1.853-3.831 3.065-3.831-3.065.403-1.208c1.08.355 2.23.554 3.428.554s2.348-.199 3.428-.554zm-3.831-2.654c-4.963 0-9-4.037-9-9v-5.172c0-.926.23-1.839.649-2.658.714 1.099 1.946 1.83 3.351 1.83 1.247 0 2.492-.267 3.672-.76.658.473 1.458.76 2.328.76h7c.352 0 .686-.072 1-.184v6.184c0 4.963-4.037 9-9 9zm11-9v-4c1.103 0 2 .897 2 2s-.897 2-2 2zm0-6v-3c0-1.654-1.346-3-3-3h-3v2h3c.552 0 1 .448 1 1s-.448 1-1 1h-7c-1.103 0-2-.897-2-2s.897-2 2-2v-2c-2.206 0-4 1.794-4 4 0 .574.127 1.118.345 1.612-.756.25-1.55.388-2.345.388-1.103 0-2-.897-2-2s.897-2 2-2v-2c-2.058 0-3.738 1.568-3.956 3.569-1.112 1.226-1.818 2.789-1.996 4.431h-.048c-2.206 0-4 1.794-4 4h-10v-1c0-13.45 10.677-24.447 24-24.975v5.975h2v-5.961c4.531.177 8.849 1.548 12.627 4.015l-5.649 3.531c.658.346 1.283.743 1.872 1.188l9.785-6.115-5.528 11.671c.321.814.57 1.666.716 2.56.027.163.03.327.051.49l4.099-8.653c3.895 4.531 6.027 10.253 6.027 16.274v1h-10c0-2.206-1.794-4-4-4zm18 4h-2v-1c0-6.798-2.52-13.243-7.098-18.235l.922-1.946c5.282 5.433 8.176 12.546 8.176 20.181z"/><path d="m57 41h-2v2h-2v2h2v2h2v-2h2v-2h-2z"/><path d="m5 43h6v2h-6z"/></g></g></svg>