<svg id="Layer_5" enable-background="new 0 0 64 64" height="512" viewBox="0 0 64 64" width="512" xmlns="http://www.w3.org/2000/svg"><g><g><path d="m9 13h23v5h-23z" fill="#f0bc5e"/></g><g><path d="m33 35h26v10h-26z" fill="#f0bc5e"/></g><g><g><path d="m14 49c-7.168 0-13-5.832-13-13s5.832-13 13-13 13 5.832 13 13-5.832 13-13 13zm0-21c-4.411 0-8 3.589-8 8s3.589 8 8 8 8-3.589 8-8-3.589-8-8-8z" fill="#f0bc5e"/></g></g><g><path d="m48 15c2.757 0 5-2.243 5-5s-2.243-5-5-5-5 2.243-5 5 2.243 5 5 5zm0-8c1.654 0 3 1.346 3 3s-1.346 3-3 3-3-1.346-3-3 1.346-3 3-3z"/><path d="m63 10c0-.994-.407-1.962-1.117-2.657l-1.182-1.159c-3.413-3.343-7.924-5.184-12.701-5.184s-9.288 1.841-12.701 5.184l-1.182 1.158c-.466.457-.785 1.036-.961 1.658h-28.156v17.641c.612-.589 1.282-1.117 2-1.578v-14.063h26.156c.176.622.495 1.201.961 1.657l1.182 1.159c3.413 3.343 7.924 5.184 12.701 5.184s9.288-1.841 12.701-5.185l.299-.293v33.478h-40.104c-1.185.746-2.496 1.304-3.896 1.637v.002c-.329.076-.663.139-1 .192v10.169c0 1.103-.897 2-2 2s-2-.897-2-2v-10.17c-.685-.107-1.355-.257-2-.466v10.636c0 2.206 1.794 4 4 4s4-1.794 4-4v-10h11v2.777l2.802.713c.119.318.252.638.4.956l-1.48 2.489 5.342 5.342 2.489-1.479c.317.147.637.281.956.4l.714 2.802h7.555l.713-2.802c.319-.119.639-.253.956-.4l2.489 1.479 5.342-5.342-1.48-2.489c.147-.317.281-.638.4-.956l2.802-.713v-2.777h4zm-19 43c2.414 0 4.434-1.721 4.899-4h2.021c-.488 3.386-3.401 6-6.92 6s-6.432-2.614-6.92-6h2.021c.465 2.279 2.485 4 4.899 4zm-2.816-4h5.631c-.414 1.161-1.514 2-2.816 2s-2.401-.839-2.815-2zm15.816 1.223-2.354.598-.169.528c-.179.56-.415 1.126-.704 1.686l-.254.492 1.246 2.095-3.143 3.143-2.096-1.246-.493.256c-.558.288-1.124.525-1.683.704l-.528.168-.599 2.353h-4.445l-.599-2.354-.528-.168c-.559-.179-1.125-.416-1.683-.704l-.493-.256-2.096 1.246-3.143-3.143 1.245-2.094-.253-.493c-.29-.562-.526-1.129-.704-1.686l-.169-.528-2.355-.597v-1.223h4.059c.5 4.493 4.317 8 8.941 8s8.442-3.507 8.941-8h4.059zm-2-40.223c0 3.859-3.14 7-7 7s-7-3.141-7-7 3.14-7 7-7 7 3.141 7 7zm-19.483 1.229c-.329-.322-.517-.77-.517-1.229s.188-.907.517-1.229l1.182-1.157c1.199-1.174 2.554-2.131 4.011-2.87-1.071 1.48-1.71 3.293-1.71 5.256s.639 3.776 1.71 5.257c-1.458-.739-2.813-1.696-4.011-2.869zm24.966 0-1.182 1.157c-1.199 1.174-2.554 2.131-4.011 2.87 1.071-1.48 1.71-3.293 1.71-5.256s-.639-3.776-1.71-5.257c1.458.739 2.813 1.696 4.011 2.869l1.182 1.159c.329.322.517.77.517 1.229s-.188.907-.517 1.229z"/><path d="m23 36c0-4.963-4.038-9-9-9s-9 4.037-9 9 4.038 9 9 9 9-4.037 9-9zm-16 0c0-3.859 3.14-7 7-7s7 3.141 7 7-3.14 7-7 7-7-3.141-7-7z"/><path d="m9 13h2v2h-2z"/><path d="m13 13h19v2h-19z"/><path d="m9 17h23v2h-23z"/><path d="m59 21h-26v12h26zm-2 10h-22v-8h22z"/><path d="m33 35h2v2h-2z"/><path d="m37 35h22v2h-22z"/><path d="m33 39h26v2h-26z"/><path d="m57 43h2v2h-2z"/><path d="m53 43h2v2h-2z"/><path d="m33 43h18v2h-18z"/></g></g></svg>